<?xml version="1.0" encoding="UTF-8" standalone="no"?>
<!-- Created with Inkscape (http://www.inkscape.org/) -->

<svg
   xmlns:dc="http://purl.org/dc/elements/1.1/"
   xmlns:cc="http://creativecommons.org/ns#"
   xmlns:rdf="http://www.w3.org/1999/02/22-rdf-syntax-ns#"
   xmlns:svg="http://www.w3.org/2000/svg"
   xmlns="http://www.w3.org/2000/svg"
   xmlns:xlink="http://www.w3.org/1999/xlink"
   xmlns:sodipodi="http://sodipodi.sourceforge.net/DTD/sodipodi-0.dtd"
   xmlns:inkscape="http://www.inkscape.org/namespaces/inkscape"
   id="svg2"
   version="1.1"
   inkscape:version="0.48.2 r9819"
   width="544.336"
   height="502.92249"
   sodipodi:docname="st_academy_logo.svg"
   inkscape:export-filename="F:\3D\st_academy_logo.png"
   inkscape:export-xdpi="399.95517"
   inkscape:export-ydpi="399.95517">
  <metadata
     id="metadata8">
    <rdf:RDF>
      <cc:Work
         rdf:about="">
        <dc:format>image/svg+xml</dc:format>
        <dc:type
           rdf:resource="http://purl.org/dc/dcmitype/StillImage" />
        <dc:title></dc:title>
      </cc:Work>
    </rdf:RDF>
  </metadata>
  <defs
     id="defs6">
    <linearGradient
       id="linearGradient4045">
      <stop
         style="stop-color:#f3e82f;stop-opacity:1;"
         offset="0"
         id="stop4047" />
      <stop
         style="stop-color:#f79a3b;stop-opacity:1;"
         offset="1"
         id="stop4049" />
    </linearGradient>
    <linearGradient
       id="linearGradient3981">
      <stop
         style="stop-color:#5794b1;stop-opacity:1;"
         offset="0"
         id="stop3983" />
      <stop
         id="stop3995"
         offset="1"
         style="stop-color:#395563;stop-opacity:1;" />
      <stop
         style="stop-color:#680000;stop-opacity:0;"
         offset="1"
         id="stop3985" />
    </linearGradient>
    <linearGradient
       id="linearGradient3893">
      <stop
         style="stop-color:#7a0000;stop-opacity:1;"
         offset="0"
         id="stop3895" />
      <stop
         style="stop-color:#460000;stop-opacity:1;"
         offset="1"
         id="stop3897" />
    </linearGradient>
    <linearGradient
       inkscape:collect="always"
       xlink:href="#linearGradient3893"
       id="linearGradient3899"
       x1="4.0319419"
       y1="253.73586"
       x2="508.36795"
       y2="253.73586"
       gradientUnits="userSpaceOnUse"
       gradientTransform="translate(15.968058,-2.2746225)" />
    <linearGradient
       inkscape:collect="always"
       xlink:href="#linearGradient3893-9"
       id="linearGradient3899-4"
       x1="4.0319419"
       y1="253.73586"
       x2="508.36795"
       y2="253.73586"
       gradientUnits="userSpaceOnUse" />
    <linearGradient
       id="linearGradient3893-9">
      <stop
         style="stop-color:#7a0000;stop-opacity:1;"
         offset="0"
         id="stop3895-4" />
      <stop
         style="stop-color:#460000;stop-opacity:1;"
         offset="1"
         id="stop3897-6" />
    </linearGradient>
    <linearGradient
       inkscape:collect="always"
       xlink:href="#linearGradient3877-3"
       id="linearGradient3883-0"
       x1="4.0319419"
       y1="253.73586"
       x2="508.36795"
       y2="253.73586"
       gradientUnits="userSpaceOnUse" />
    <linearGradient
       inkscape:collect="always"
       id="linearGradient3877-3">
      <stop
         style="stop-color:#f5aa4f;stop-opacity:1;"
         offset="0"
         id="stop3879-6" />
      <stop
         style="stop-color:#f5aa4f;stop-opacity:0;"
         offset="1"
         id="stop3881-2" />
    </linearGradient>
    <radialGradient
       inkscape:collect="always"
       xlink:href="#linearGradient3981"
       id="radialGradient3993"
       cx="364.87704"
       cy="382.4343"
       fx="364.87704"
       fy="382.4343"
       r="195.93938"
       gradientTransform="matrix(0.82287281,-1.4263901,1.4648466,0.84505809,-479.60988,564.04554)"
       gradientUnits="userSpaceOnUse" />
    <radialGradient
       inkscape:collect="always"
       xlink:href="#linearGradient3981-8"
       id="radialGradient3993-8"
       cx="364.87704"
       cy="382.4343"
       fx="364.87704"
       fy="382.4343"
       r="195.93938"
       gradientTransform="matrix(0.82287281,-1.4263901,1.4648466,0.84505809,-495.57794,566.32016)"
       gradientUnits="userSpaceOnUse" />
    <linearGradient
       id="linearGradient3981-8">
      <stop
         style="stop-color:#5794b1;stop-opacity:1;"
         offset="0"
         id="stop3983-1" />
      <stop
         id="stop3995-2"
         offset="1"
         style="stop-color:#395563;stop-opacity:1;" />
      <stop
         style="stop-color:#680000;stop-opacity:0;"
         offset="1"
         id="stop3985-1" />
    </linearGradient>
    <linearGradient
       inkscape:collect="always"
       xlink:href="#linearGradient4045-8"
       id="linearGradient4051-3"
       x1="54.060616"
       y1="174.99995"
       x2="453.93237"
       y2="420.99994"
       gradientUnits="userSpaceOnUse" />
    <linearGradient
       id="linearGradient4045-8">
      <stop
         style="stop-color:#f8d22f;stop-opacity:1;"
         offset="0"
         id="stop4047-6" />
      <stop
         style="stop-color:#f79a3b;stop-opacity:1;"
         offset="1"
         id="stop4049-9" />
    </linearGradient>
    <linearGradient
       inkscape:collect="always"
       xlink:href="#linearGradient4045"
       id="linearGradient4280"
       gradientUnits="userSpaceOnUse"
       x1="13.048422"
       y1="307.93604"
       x2="438.37604"
       y2="408.272"
       gradientTransform="translate(15.968058,-2.2746225)" />
    <linearGradient
       gradientTransform="translate(550.31233,42.794448)"
       y2="420.99994"
       x2="453.93237"
       y1="174.99995"
       x1="54.060616"
       gradientUnits="userSpaceOnUse"
       id="linearGradient4248-2"
       xlink:href="#linearGradient4045-8-7"
       inkscape:collect="always" />
    <linearGradient
       id="linearGradient4045-8-7">
      <stop
         style="stop-color:#f8d22f;stop-opacity:1;"
         offset="0"
         id="stop4047-6-5" />
      <stop
         style="stop-color:#f79a3b;stop-opacity:1;"
         offset="1"
         id="stop4049-9-7" />
    </linearGradient>
  </defs>
  <sodipodi:namedview
     pagecolor="#ffffff"
     bordercolor="#666666"
     borderopacity="1"
     objecttolerance="10"
     gridtolerance="10"
     guidetolerance="10"
     inkscape:pageopacity="0"
     inkscape:pageshadow="2"
     inkscape:window-width="1593"
     inkscape:window-height="1028"
     id="namedview4"
     showgrid="false"
     inkscape:zoom="1.4142136"
     inkscape:cx="177.89554"
     inkscape:cy="210.46127"
     inkscape:window-x="79"
     inkscape:window-y="-8"
     inkscape:window-maximized="1"
     inkscape:current-layer="svg2"
     fit-margin-top="20"
     fit-margin-left="20"
     fit-margin-right="20"
     fit-margin-bottom="20" />
  <path
     style="fill:url(#linearGradient3899);fill-opacity:1;stroke:#f5aa4f;stroke-width:2;stroke-linecap:butt;stroke-linejoin:round;stroke-miterlimit:4;stroke-opacity:1;stroke-dasharray:none"
     d="m 508.93228,341.81468 c 0,0 10.40741,17.97871 12.91591,33.68026 3.92989,24.59853 0.699,51.67845 -17.2582,72.86795 -19.17578,22.62742 -47.25848,29.99232 -61.74601,31.83179 -12.12376,1.53934 -170.67597,1.53407 -170.67597,1.53407 0,0 -158.55222,0.7723 -170.67599,-0.76704 -14.48752,-1.83947 -42.570222,-9.20437 -61.745998,-31.83179 -17.957203,-21.1895 -21.188087,-48.26942 -17.2582,-72.86795 2.508495,-15.70155 12.91591,-33.68026 12.91591,-33.68026 L 103.37481,225.59127 c 0,0 89.44551,-156.083823 96.84047,-165.813693 8.83687,-11.626858 29.25645,-32.264703 58.44018,-37.557739 27.32929,-4.956628 52.39665,5.785326 71.73459,21.48793 12.3437,10.023226 22.71003,28.02566 22.71003,28.02566 l 77.43069,135.320852 z"
     id="path3759-7"
     inkscape:connector-curvature="0"
     sodipodi:nodetypes="cssscsssccsssccc" />
  <path
     style="fill:#680000;fill-opacity:1;stroke:#f5aa4f;stroke-width:2;stroke-linecap:butt;stroke-linejoin:round;stroke-miterlimit:4;stroke-opacity:1;stroke-dasharray:none"
     d="m 337.5343,143.82014 c -9.73785,-16.40249 -33.84945,-68.139893 -54.52225,-72.598083 -16.73363,-3.60869 -26.60287,1.02844 -36.17089,8.45058 -9.85716,7.64644 -29.39457,45.175173 -29.39457,45.175173 L 156.0655,231.29554 94.881186,337.85689 c 0,0 -22.732133,35.68426 -24.425561,48.04403 -1.643753,11.99721 -1.078557,23.92345 10.413484,36.61086 14.197304,15.67407 71.412561,9.62597 90.486461,9.85796 14.81238,0.18016 100.79725,-0.93272 100.79725,-0.93272 0,0 85.98487,1.11288 100.79725,0.93272 19.0739,-0.23199 75.9356,4.75545 90.1329,-10.91862 11.49204,-12.68741 12.41079,-23.55299 10.76704,-35.5502 -1.69343,-12.35977 -24.42556,-48.04403 -24.42556,-48.04403 l -51.38491,-88.30085 c 0,0 -52.94302,-92.99809 -60.50524,-105.7359 z"
     id="path3759-7-3-1-8"
     inkscape:connector-curvature="0"
     sodipodi:nodetypes="ssscccssscsssccs" />
  <path
     style="fill:none;stroke:#f5aa4f;stroke-width:2;stroke-linecap:butt;stroke-linejoin:round;stroke-miterlimit:4;stroke-opacity:1;stroke-dasharray:none"
     d="m 500.13392,340.36353 c 0,0 11.82162,17.2716 14.33012,32.97315 3.92989,24.59853 0.699,51.67845 -17.2582,72.86795 -19.17578,22.62742 -48.31914,26.10324 -62.80667,27.94271 -12.12376,1.53934 -160.42292,-0.2337 -160.42292,-0.2337 0,0 -152.89537,1.83296 -165.01913,0.29362 -14.487527,-1.83947 -42.727083,-5.76503 -61.902859,-28.39245 -17.957203,-21.1895 -21.688087,-44.26942 -17.7582,-68.86795 2.508496,-15.70155 14.91591,-36.18026 14.91591,-36.18026 L 112.18305,223.77616 c 0,0 83.85972,-147.941696 91.25468,-157.671566 8.83687,-11.626858 29.25645,-32.264703 58.44018,-37.557739 27.32929,-4.956628 45.32559,5.785326 64.66353,21.48793 12.3437,10.023226 22.71003,28.02566 22.71003,28.02566 l 72.48094,127.542685 z"
     id="path3759-7-4"
     inkscape:connector-curvature="0"
     sodipodi:nodetypes="cssscsssccsssccc" />
  <path
     style="fill:url(#radialGradient3993);fill-opacity:1;stroke:none"
     d="m 334.34954,150.8359 c -9.73785,-16.40249 -32.59945,-68.139901 -53.27225,-72.598091 -16.73363,-3.60868 -20.85287,-0.22156 -30.42089,7.20059 -9.85716,7.64644 -31.89457,47.175171 -31.89457,47.175171 l -53.88108,92.44773 -59.93432,106.81135 c 0,0 -22.009436,38.62496 -27.089775,50.0189 -1.89375,4.24721 -9.359203,38.56761 29.076435,44.13904 3.4493,0.49999 44.66383,-0.37708 65.73772,-0.39509 14.81347,-0.0127 96.20106,0.12794 96.20106,0.12794 0,0 38.08106,1.55222 52.89344,1.37206 19.0739,-0.23199 92.92966,-0.23028 110.46995,-1.01912 44.43343,-1.99832 36.04954,-38.34599 32.92999,-44.9497 C 455.1055,359.8714 436.98969,330.12265 436.98969,330.12265 L 389.35478,244.8218 c 0,0 -47.44302,-81.24809 -55.00524,-93.9859 z"
     id="path3759-7-3-1-8-5"
     inkscape:connector-curvature="0"
     sodipodi:nodetypes="ssscccssscsssccs"
     inkscape:transform-center-x="140.00714"
     inkscape:transform-center-y="-131.52186" />
  <path
     style="fill:url(#linearGradient4280);fill-opacity:1;stroke:none"
     d="m 269.93681,81.975379 c -6.18421,0.252457 -10.15962,3.432241 -15.6875,7.75 L 435.71806,356.94413 c -3.52159,0.8522 -6.9275,2.04644 -10.1875,3.53125 L 231.74931,119.66288 c -6.24755,10.19055 -11.25,19.125 -11.25,19.125 l -15.25,26 208.75,202.71875 c -1.73613,1.30533 -3.40296,2.69744 -5,4.1875 l -214.90625,-187.875 -24.65625,42.0625 231.78125,155.46875 c -1.04309,1.49335 -2.04499,3.03569 -2.96875,4.625 l -238,-143.9375 -20.09375,35.625 253.25,118.0625 c -0.53059,1.41979 -1.02955,2.8765 -1.46875,4.34375 l -259.1875,-109.28125 -23.4375,41.5625 c 0,0 -1.34257,2.35683 -2.96875,5.21875 l 283.78125,71.1875 c -0.20253,1.13522 -0.38376,2.28219 -0.53125,3.4375 l -290.718752,-61.375 c -6.257767,11.20138 -13.40162,24.26094 -16.03125,30.125 -0.515276,1.14906 -1.476349,4.44057 -1.75,8.71875 l 309.281252,33.34375 c 16.94772,-0.12031 32.01546,-0.2954 38.6875,-0.59375 43.41217,-1.94128 35.23534,-35.77228 32.1875,-42.1875 -9.82854,-20.68748 -27.53125,-49.5625 -27.53125,-49.5625 l -46.5625,-82.875 c 0,0 -46.33034,-78.93824 -53.71875,-91.3125 -9.51403,-15.93432 -36.20175,-67.338017 -52.125,-72.531251 -4.66947,-1.522908 -8.29579,-2.094452 -11.375,-1.96875 z M 82.999308,403.28788 c 3.180366,8.41725 10.949046,16.53766 28.250002,19.03125 3.37002,0.48571 43.62922,-0.3575 64.21875,-0.375 14.47299,-0.0123 94,0.125 94,0.125 0,0 37.18432,1.48752 51.65625,1.3125 6.26306,-0.0757 19.17172,-0.12846 33.40625,-0.1875 L 82.999308,403.28788 z"
     id="path3759-7-3-1-8-5-4"
     inkscape:connector-curvature="0" />
  <g
     id="g4122"
     transform="translate(15.968058,-2.2746225)">
    <path
       sodipodi:nodetypes="scscsssssscs"
       inkscape:connector-curvature="0"
       id="path4053-9-8"
       d="m 279.77275,150.18436 c -10.52238,-30.9935 -24.51138,-49.96718 -24.51138,-49.96718 0,0 -13.98899,19.03932 -24.51137,50.03282 -8.62211,25.39629 -9.93376,57.97204 -9.93376,57.97204 0,0 9.34701,-13.44782 13.67804,-18.39757 4.33103,-4.94975 10.9693,-11.29012 15.37958,-14.58407 5.6176,-4.19567 9.74143,-6.72447 12.1092,-7.77818 3.27912,-1.45929 7.00747,-1.5422 9.36917,-0.44194 2.49472,1.16224 4.48562,3.39991 7.07107,7.42462 2.78307,4.33233 4.94974,9.54595 7.33623,15.02602 2.34358,5.38152 3.84001,11.52613 3.84001,11.52613 0,0 -1.20468,-25.4164 -9.82679,-50.81269 z"
       style="fill:#f59b29;fill-opacity:1;stroke:none" />
    <path
       sodipodi:nodetypes="scscsssssscs"
       inkscape:connector-curvature="0"
       id="path4053-9-8-2"
       d="m 279.02275,168.43436 c -12.02238,-28.7435 -23.01138,-26.21718 -23.01138,-26.21718 0,0 -7.48899,-2.71068 -17.51137,21.78282 -10.15694,24.82235 -17.68376,44.22204 -17.68376,44.22204 0,0 9.34701,-13.44782 13.67804,-18.39757 4.33103,-4.94975 10.9693,-11.29012 15.37958,-14.58407 5.6176,-4.19567 9.74143,-6.72447 12.1092,-7.77818 3.27912,-1.45929 7.00747,-1.5422 9.36917,-0.44194 2.49472,1.16224 4.48562,3.39991 7.07107,7.42462 2.78307,4.33233 4.94974,9.54595 7.33623,15.02602 2.34358,5.38152 3.84001,11.52613 3.84001,11.52613 0,0 -0.22773,-7.81983 -10.57679,-32.56269 z"
       style="fill:#e7652b;fill-opacity:1;stroke:none" />
    <path
       sodipodi:nodetypes="scscsssssscs"
       inkscape:connector-curvature="0"
       id="path4053-9"
       d="m 279.77275,150.18436 c -10.52238,-30.9935 -24.51138,-49.96718 -24.51138,-49.96718 0,0 -13.98899,19.03932 -24.51137,50.03282 -8.62211,25.39629 -9.93376,57.97204 -9.93376,57.97204 0,0 9.34701,-13.44782 13.67804,-18.39757 4.33103,-4.94975 10.9693,-11.29012 15.37958,-14.58407 5.6176,-4.19567 9.74143,-6.72447 12.1092,-7.77818 3.27912,-1.45929 7.00747,-1.5422 9.36917,-0.44194 2.49472,1.16224 4.48562,3.39991 7.07107,7.42462 2.78307,4.33233 4.94974,9.54595 7.33623,15.02602 2.34358,5.38152 3.84001,11.52613 3.84001,11.52613 0,0 -1.20468,-25.4164 -9.82679,-50.81269 z"
       style="fill:none;stroke:#000000;stroke-width:2;stroke-linecap:butt;stroke-linejoin:miter;stroke-miterlimit:10.89999962;stroke-opacity:1;stroke-dasharray:none" />
  </g>
  <path
     style="fill:#000000;fill-opacity:1;stroke:#000000;stroke-width:1;stroke-linecap:butt;stroke-linejoin:miter;stroke-miterlimit:10;stroke-opacity:1;stroke-dasharray:none"
     d="m 266.99097,148.39382 0.53033,-6.36397 -6.71752,-3.53553 7.6014,-1.94454 2.65008,-23.86822 3.02508,23.86822 7.6014,1.94454 -6.71752,3.53553 0.53033,6.36397 -4.25179,-5.83364 z"
     id="path4127"
     inkscape:connector-curvature="0"
     sodipodi:nodetypes="ccccccccccc" />
  <path
     sodipodi:nodetypes="ccccccsscccccccssscccsssssscccsssssscccsss"
     inkscape:connector-curvature="0"
     style="fill:#000000;fill-opacity:1;stroke:none"
     d="m 262.40556,207.56913 -19.46875,8.84375 0,206.46875 19.46875,-0.0937 0,-22.84375 0.34375,-19.28125 c 0,0 5.49328,-6.53125 13.625,-6.53125 8.13173,0 19.08486,4.43045 19.96875,6.375 0.79756,1.75463 -0.12331,35.59035 -0.3125,42.41069 l 11.35983,0.26517 0.95267,-206.76961 -13.0625,4.25 0,6 -32.53125,-11.65625 z m 15.96875,19.625 c 0.81578,-0.0306 1.61268,0.0613 2.34375,0.28125 5.1907,1.56152 6.95794,2.90561 9.5,7 3.95451,6.36936 3.625,10.625 3.625,10.625 l -0.125,17.875 -29.25,-7 c 0,0 0,-6.25 0.75,-11.25 0.75,-5 1.6696,-8.1718 4,-12.25 1.625,-2.84375 5.62121,-5.1487 9.15625,-5.28125 z m 0,41.65625 c 0.81578,-0.0306 1.61268,0.0301 2.34375,0.25 5.1907,1.56152 6.95794,2.90561 9.5,7 3.95451,6.36936 3.625,10.625 3.625,10.625 l -0.125,17.875 -29.25,-7 c 0,0 0,-6.25 0.75,-11.25 0.75,-5 1.6696,-8.1718 4,-12.25 1.625,-2.84375 5.62121,-5.11745 9.15625,-5.25 z m 0,41.125 c 0.81578,-0.0306 1.61268,0.0301 2.34375,0.25 5.1907,1.56152 6.95794,2.90561 9.5,7 3.95451,6.36936 3.625,10.625 3.625,10.625 l -0.125,17.875 -29.25,-7 c 0,0 0,-6.25 0.75,-11.25 0.75,-5 1.6696,-8.1718 4,-12.25 1.625,-2.84375 5.62121,-5.11745 9.15625,-5.25 z"
     id="path4312" />
  <path
     style="fill:#000000;fill-opacity:1;stroke:none"
     d="m 261.46806,422.72538 6.25,0.25 14.125,-14.125 -0.375,-4.75 17.5,-18.125 1,-8.75 -4.125,1.75 -17.25,19.875 -0.875,2.625 -18.75,16.75 z"
     id="path4318"
     inkscape:connector-curvature="0" />
  <path
     style="fill:#000000;fill-opacity:1;stroke:none"
     d="m 258.09306,383.35038 31.875,39.56694 7.26562,0.0312 0.35938,-4.47314 -34.875,-42.625 z"
     id="path4320"
     inkscape:connector-curvature="0"
     sodipodi:nodetypes="cccccc" />
  <path
     style="fill:#000000;fill-opacity:1;stroke:none"
     d="m 153.69566,302.49697 -11.15492,4.9173 0,114.80063 11.15492,-0.0521 0,-12.70157 0.19696,-10.72075 c 0,0 3.14746,-3.6315 7.80665,-3.6315 4.65921,0 10.93497,2.46342 11.44141,3.54463 0.45698,0.9756 -0.0707,19.54318 -0.17905,23.33542 l 6.66072,0 0.39392,-114.57469 -7.48437,2.36309 0,3.33611 -18.63928,-6.4811 -0.19696,-4.13539 z m 9.14954,10.91188 c 0.46742,-0.017 0.92401,0.0341 1.34289,0.15638 2.9741,0.86824 3.98666,1.61558 5.44318,3.89214 2.26579,3.54149 2.077,5.9077 2.077,5.9077 l -0.0716,9.93885 -16.75925,-3.89213 c 0,0 0,-3.47513 0.42973,-6.25522 0.42972,-2.7801 0.95662,-4.54368 2.29186,-6.81124 0.93107,-1.58118 3.22076,-2.86278 5.24621,-2.93648 z m 0,23.16169 c 0.46742,-0.017 0.92401,0.0167 1.34289,0.139 2.9741,0.86824 3.98666,1.61558 5.44318,3.89214 2.26579,3.54148 2.077,5.9077 2.077,5.9077 l -0.0716,9.93885 -16.75925,-3.89214 c 0,0 0,-3.47512 0.42973,-6.25521 0.42972,-2.7801 0.95662,-4.54368 2.29186,-6.81124 0.93107,-1.58118 3.22076,-2.8454 5.24621,-2.9191 z m 0,22.86629 c 0.46742,-0.017 0.92401,0.0167 1.34289,0.13901 2.9741,0.86823 3.98666,1.61557 5.44318,3.89213 2.26579,3.54149 2.077,5.90771 2.077,5.90771 l -0.0716,9.93885 -16.75925,-3.89214 c 0,0 0,-3.47512 0.42973,-6.25522 0.42972,-2.78009 0.95662,-4.54368 2.29186,-6.81123 0.93107,-1.58118 3.22076,-2.84541 5.24621,-2.91911 z"
     id="path4312-8"
     inkscape:connector-curvature="0"
     sodipodi:nodetypes="ccccccssccccccccccscccssccccscccssccccscccsscc" />
  <path
     style="fill:#000000;fill-opacity:1;stroke:none"
     d="m 153.1585,422.12802 3.58104,0.13901 8.09314,-7.85378 -0.21486,-2.64109 10.0269,-10.07785 0.57296,-4.86517 -2.36348,0.97303 -9.88366,11.05089 -0.50134,1.45955 -10.74311,9.31333 z"
     id="path4318-2"
     inkscape:connector-curvature="0" />
  <path
     style="fill:#000000;fill-opacity:1;stroke:none"
     d="m 151.22475,400.23476 18.26327,21.75427 3.86752,0 0.50135,-2.22409 -19.98218,-23.70033 z"
     id="path4320-6"
     inkscape:connector-curvature="0"
     sodipodi:nodetypes="cccccc" />
  <path
     style="fill:#000000;fill-opacity:1;stroke:none"
     d="m 428.93681,322.06913 c -56.78956,10.86828 -263.18828,51.60633 -344.250002,84.8125 1.070824,1.91421 2.447921,3.769 4.15625,5.5 34.639482,-11.05595 190.626742,-57.65625 358.125002,-57.65625 0.35,0 0.52682,1e-5 0.875,0 -7.41824,-13.1835 -14.09375,-24.0625 -14.09375,-24.0625 l -4.8125,-8.59375 z"
     id="path4360"
     inkscape:connector-curvature="0" />
  <text
     xml:space="preserve"
     style="font-size:20px;font-style:normal;font-variant:normal;font-weight:normal;font-stretch:normal;text-align:center;line-height:125%;letter-spacing:0px;word-spacing:0px;text-anchor:middle;fill:#000000;fill-opacity:1;stroke:none;font-family:FederationStarfleet;-inkscape-font-specification:FederationStarfleet"
     x="-24.867355"
     y="449.7981"
     id="text4403"
     sodipodi:linespacing="125%"><tspan
       sodipodi:role="line"
       id="tspan4405"
       x="-24.867355"
       y="449.7981" /></text>
  <g
     style="font-size:20px;font-style:normal;font-variant:normal;font-weight:normal;font-stretch:normal;text-align:center;line-height:125%;letter-spacing:0px;word-spacing:0px;text-anchor:middle;fill:#ffffff;fill-opacity:1;stroke:none;font-family:FederationStarfleet;-inkscape-font-specification:FederationStarfleet"
     id="text4399">
    <path
       d="m 104.89932,449.46512 c -0.0134,-0.30639 -0.0667,-0.54961 -0.15991,-0.72968 -0.0932,-0.18004 -0.25646,-0.3134 -0.48981,-0.40008 -0.23337,-0.0867 -0.54007,-0.14332 -0.9201,-0.16999 -0.38006,-0.0266 -0.87017,-0.04 -1.47034,-0.04 -0.10662,10e-6 -0.19329,10e-6 -0.26001,0 -0.0667,10e-6 -0.15341,0.007 -0.26001,0.0201 -0.86671,0.0399 -1.593329,0.0598 -2.179869,0.0598 -0.586554,10e-6 -1.059881,0.03 -1.419983,0.09 -0.360112,0.06 -0.620122,0.16999 -0.780029,0.32989 -0.159917,0.15993 -0.239873,0.42665 -0.239868,0.80018 -5e-6,0.33326 0.120031,0.5832 0.360107,0.74981 0.240067,0.16664 0.573318,0.25666 0.999756,0.27008 0.600173,0.0134 1.17024,0.0268 1.710205,0.04 0.539951,0.0132 1.043281,0.0199 1.510011,0.0198 0.27994,1e-5 0.56996,-0.003 0.87006,-0.01 0.30007,-0.006 0.58338,-0.01 0.84991,-0.01 1.10676,0 2.06674,0.0299 2.87994,0.0897 0.81318,0.0598 1.48314,0.22309 2.00989,0.48981 0.52672,0.26673 0.91673,0.67342 1.17005,1.22009 0.25327,0.54668 0.37992,1.31338 0.37994,2.30011 -2e-5,0.69336 -0.0666,1.28001 -0.19989,1.75995 -0.13328,0.47994 -0.34324,0.87656 -0.62988,1.18988 -0.28668,0.31331 -0.65004,0.55664 -1.09009,0.72998 -0.44008,0.17334 -0.96671,0.29337 -1.5799,0.3601 -0.36012,0.0399 -1.05348,0.0866 -2.08007,0.14008 -1.02663,0.0535 -2.3399,0.0803 -3.939824,0.0803 -1.573493,0 -2.856858,-0.0467 -3.850098,-0.14007 -0.993248,-0.0934 -1.716718,-0.3002 -2.17041,-0.62043 -0.319826,-0.22664 -0.556439,-0.46997 -0.709839,-0.72998 -0.153403,-0.26001 -0.260112,-0.5366 -0.320129,-0.82977 -0.06002,-0.29317 -0.09003,-0.60984 -0.09003,-0.95001 -10e-7,-0.34017 -10e-7,-0.71024 0,-1.11023 l 4.020386,0 c -5e-6,0.14689 -5e-6,0.3003 0,0.4602 -5e-6,0.15992 0.03326,0.30325 0.09979,0.43 0.06652,0.12675 0.186457,0.24007 0.359802,0.33996 0.173335,0.0999 0.440058,0.16327 0.800171,0.19013 0.173334,0.0134 0.496718,0.0267 0.970154,0.04 0.473422,0.0132 1.070042,0.0198 1.789852,0.0198 0.93343,0 1.69677,-0.007 2.29004,-0.0198 0.59325,-0.0132 1.05661,-0.0599 1.39008,-0.14007 0.33344,-0.0802 0.56008,-0.20019 0.67993,-0.36011 0.11982,-0.15991 0.17974,-0.39326 0.17975,-0.70007 -10e-6,-0.29297 -0.0599,-0.52287 -0.17975,-0.6897 -0.11985,-0.16682 -0.29308,-0.28686 -0.51971,-0.36011 -0.22666,-0.0732 -0.49674,-0.11657 -0.81025,-0.13 -0.31352,-0.0134 -0.65685,-0.0201 -1.02996,-0.0201 -1.30657,-0.013 -2.46654,-0.0163 -3.479923,-0.01 -1.013394,0.007 -1.893418,-0.0169 -2.640076,-0.0702 -0.746667,-0.0533 -1.376651,-0.14658 -1.889954,-0.27985 -0.513308,-0.13325 -0.926617,-0.34657 -1.239929,-0.63995 -0.313315,-0.29337 -0.539959,-0.68003 -0.679932,-1.15997 -0.139974,-0.47993 -0.209961,-1.08672 -0.209961,-1.82038 0,-0.65306 0.05666,-1.21957 0.169983,-1.69952 0.113321,-0.47993 0.303242,-0.88327 0.569764,-1.21002 0.266518,-0.32673 0.616453,-0.58013 1.049804,-0.76019 0.433347,-0.18004 0.970049,-0.30995 1.610108,-0.38971 0.426834,-0.0533 1.116938,-0.1067 2.070312,-0.16022 0.953362,-0.0535 2.149854,-0.0802 3.589474,-0.0803 0.76008,10e-6 1.44347,0.003 2.05017,0.0101 0.60668,0.007 1.14674,0.0367 1.62018,0.09 0.47342,0.0533 0.89008,0.13001 1.25,0.2301 0.35989,0.10011 0.67331,0.25005 0.94025,0.44983 0.29295,0.21363 0.52285,0.44038 0.6897,0.68023 0.16681,0.23988 0.2902,0.49989 0.37017,0.78003 0.0799,0.28017 0.13325,0.58351 0.15992,0.91004 0.0266,0.32655 0.04,0.68309 0.04,1.06964 z"
       style="fill:#ffffff;font-family:Eurostile MN;-inkscape-font-specification:Eurostile MN"
       id="path4469" />
    <path
       d="m 123.22879,453.54532 -2.83997,-5.28015 -2.87963,5.28015 z m 1.4801,2.76001 -8.61999,0 -1.31958,2.42004 -4.52027,0 7.44019,-13.33984 5.47974,0 7.28027,13.33984 -4.47998,0 z"
       style="fill:#ffffff;font-family:Eurostile MN;-inkscape-font-specification:Eurostile MN"
       id="path4471" />
    <path
       d="m 150.23135,445.38553 0,13.33984 -6.45996,0 -8.02002,-10.02014 0,10.02014 -3.84033,0 0,-13.33984 6.45996,0 8.02002,10 0,-10 z"
       style="fill:#ffffff;font-family:Eurostile MN;-inkscape-font-specification:Eurostile MN"
       id="path4473" />
    <path
       d="m 161.42337,458.72537 0,-13.33984 14.14002,0 0,3.12012 -10.12024,0 0,2.61962 9.60022,0 0,2.99988 -9.60022,0 0,4.60022 z"
       style="fill:#ffffff;font-family:Eurostile MN;-inkscape-font-specification:Eurostile MN"
       id="path4475" />
    <path
       d="m 181.22684,452.04507 6.09985,0 c 0.1066,10e-6 0.19327,0.003 0.26001,0.0101 0.0667,0.007 0.15339,0.0101 0.26001,0.0101 0.47972,0 0.85631,-0.0267 1.12976,-0.08 0.27343,-0.0533 0.48013,-0.14994 0.62012,-0.28992 0.13996,-0.13996 0.22663,-0.32999 0.26001,-0.57007 0.0334,-0.24006 0.05,-0.54666 0.0501,-0.9198 -2e-5,-0.36009 -0.0367,-0.6435 -0.11017,-0.85021 -0.0735,-0.2067 -0.19685,-0.36671 -0.37018,-0.48005 -0.17335,-0.11331 -0.40661,-0.1833 -0.69977,-0.20996 -0.29318,-0.0266 -0.6599,-0.04 -1.10016,-0.04 l -6.39953,0 z m 0,3.24036 0,3.43994 -4.10034,0 0,-13.33984 12.3999,0 c 0.82681,10e-6 1.52352,0.0766 2.09015,0.2298 0.56659,0.15321 1.02659,0.39653 1.38,0.72998 0.35338,0.33346 0.60678,0.76681 0.76019,1.30005 0.15339,0.53325 0.23009,1.18663 0.23011,1.96014 -2e-5,0.79998 -0.0634,1.43332 -0.19013,1.90002 -0.12677,0.46673 -0.31353,0.83334 -0.5603,1.09986 -0.2468,0.26652 -0.55015,0.46651 -0.91003,0.59997 -0.35992,0.13347 -0.76652,0.26673 -1.21979,0.39978 0.37311,0.0802 0.7264,0.15026 1.05987,0.21027 0.33344,0.06 0.62346,0.1767 0.87006,0.35004 0.24656,0.17334 0.43984,0.42338 0.57983,0.75012 0.13996,0.32674 0.20995,0.79671 0.20996,1.40991 l 0,2.3999 -4.09973,0 0,-1.76025 c -10e-6,-0.57332 -0.11669,-0.9966 -0.35003,-1.26984 -0.23337,-0.27323 -0.70345,-0.40985 -1.41022,-0.40985 z"
       style="fill:#ffffff;font-family:Eurostile MN;-inkscape-font-specification:Eurostile MN"
       id="path4477" />
    <path
       d="m 208.07254,453.54532 -2.83997,-5.28015 -2.87963,5.28015 z m 1.4801,2.76001 -8.61999,0 -1.31958,2.42004 -4.52027,0 7.44019,-13.33984 5.47974,0 7.28027,13.33984 -4.47998,0 z"
       style="fill:#ffffff;font-family:Eurostile MN;-inkscape-font-specification:Eurostile MN"
       id="path4479" />
    <path
       d="m 235.0751,445.38553 0,13.33984 -6.45996,0 -8.02002,-10.02014 0,10.02014 -3.84033,0 0,-13.33984 6.45996,0 8.02002,10 0,-10 z"
       style="fill:#ffffff;font-family:Eurostile MN;-inkscape-font-specification:Eurostile MN"
       id="path4481" />
    <path
       d="m 249.8389,450.08524 c -0.0134,-0.41341 -0.0735,-0.72672 -0.18006,-0.93995 -0.10662,-0.2132 -0.30661,-0.3665 -0.59997,-0.4599 -0.29339,-0.0934 -0.71006,-0.14342 -1.25,-0.15014 -0.53997,-0.007 -1.25001,-0.0101 -2.13013,-0.0101 -0.99976,1e-5 -1.80634,0.0101 -2.41974,0.0302 -0.61341,0.0202 -1.09345,0.11689 -1.44012,0.29022 -0.34669,0.17335 -0.58004,0.46327 -0.70008,0.86975 -0.12004,0.40651 -0.18005,0.99651 -0.18005,1.77002 0,0.98674 0.03,1.75009 0.09,2.29004 0.06,0.53996 0.24006,0.93995 0.54016,1.19995 0.30008,0.26002 0.76344,0.41332 1.39007,0.4599 0.62663,0.0466 1.50004,0.0699 2.62024,0.0699 0.83984,0 1.53981,0 2.09992,0 0.56009,0 1.0034,-0.0533 1.32995,-0.15991 0.32653,-0.10661 0.55979,-0.28992 0.69977,-0.54993 0.13996,-0.26001 0.20995,-0.65002 0.20996,-1.17005 l 4.00025,0 c -2e-5,0.10662 0.003,0.20326 0.0101,0.28992 0.007,0.0867 0.0101,0.18332 0.0101,0.28992 -2e-5,0.68034 -0.0434,1.28052 -0.13001,1.80054 -0.0867,0.52002 -0.23673,0.95998 -0.45013,1.31988 -0.21344,0.35991 -0.5001,0.64657 -0.85999,0.85999 -0.35991,0.21342 -0.80659,0.34678 -1.34002,0.40008 -0.86672,0.0932 -1.68336,0.16307 -2.44995,0.20966 -0.76662,0.0466 -1.46994,0.0699 -2.10999,0.0699 -2.09351,0 -4.04684,-0.06 -5.85998,-0.18005 -0.70679,-0.0399 -1.30687,-0.19318 -1.80024,-0.4599 -0.49337,-0.26672 -0.89335,-0.65674 -1.19995,-1.17004 -0.3066,-0.51331 -0.52988,-1.15662 -0.66986,-1.92994 -0.13997,-0.77331 -0.20996,-1.69992 -0.20996,-2.77984 0,-0.67993 0.007,-1.3032 0.0198,-1.86981 0.0132,-0.56661 0.0632,-1.08662 0.14984,-1.56006 0.0867,-0.47342 0.22003,-0.90677 0.40008,-1.30005 0.18006,-0.39326 0.43671,-0.75001 0.76996,-1.07025 0.33325,-0.31982 0.72327,-0.5664 1.17005,-0.73975 0.44677,-0.17333 0.97015,-0.29997 1.57013,-0.37994 0.59997,-0.0799 1.28,-0.12999 2.0401,-0.15015 0.76008,-0.0201 1.61335,-0.0302 2.55981,-0.0302 1.64021,10e-6 2.9903,0.0334 4.05029,0.1001 1.05997,0.0667 1.89655,0.25341 2.50977,0.55999 0.61318,0.30662 1.03982,0.78666 1.27991,1.44013 0.24005,0.65349 0.3668,1.56678 0.38025,2.73987 z"
       style="fill:#ffffff;font-family:Eurostile MN;-inkscape-font-specification:Eurostile MN"
       id="path4483" />
    <path
       d="m 259.76138,445.38553 0,13.33984 -4.10034,0 0,-13.33984 z"
       style="fill:#ffffff;font-family:Eurostile MN;-inkscape-font-specification:Eurostile MN"
       id="path4485" />
    <path
       d="m 273.72745,449.46512 c -0.0134,-0.30639 -0.0667,-0.54961 -0.15991,-0.72968 -0.0932,-0.18004 -0.25647,-0.3134 -0.48981,-0.40008 -0.23337,-0.0867 -0.54007,-0.14332 -0.92011,-0.16999 -0.38005,-0.0266 -0.87016,-0.04 -1.47033,-0.04 -0.10662,10e-6 -0.19329,10e-6 -0.26001,0 -0.0667,10e-6 -0.15341,0.007 -0.26001,0.0201 -0.86671,0.0399 -1.59333,0.0598 -2.17987,0.0598 -0.58656,10e-6 -1.05989,0.03 -1.41999,0.09 -0.36011,0.06 -0.62012,0.16999 -0.78003,0.32989 -0.15991,0.15993 -0.23987,0.42665 -0.23986,0.80018 -1e-5,0.33326 0.12003,0.5832 0.3601,0.74981 0.24007,0.16664 0.57332,0.25666 0.99976,0.27008 0.60017,0.0134 1.17024,0.0268 1.7102,0.04 0.53995,0.0132 1.04329,0.0199 1.51001,0.0198 0.27994,1e-5 0.56996,-0.003 0.87006,-0.01 0.30008,-0.006 0.58338,-0.01 0.84991,-0.01 1.10676,0 2.06674,0.0299 2.87995,0.0897 0.81318,0.0598 1.48314,0.22309 2.00989,0.48981 0.52671,0.26673 0.91673,0.67342 1.17004,1.22009 0.25328,0.54668 0.37993,1.31338 0.37994,2.30011 -10e-6,0.69336 -0.0666,1.28001 -0.19989,1.75995 -0.13327,0.47994 -0.34323,0.87656 -0.62988,1.18988 -0.28668,0.31331 -0.65004,0.55664 -1.09009,0.72998 -0.44008,0.17334 -0.96671,0.29337 -1.57989,0.3601 -0.36012,0.0399 -1.05348,0.0866 -2.08008,0.14008 -1.02662,0.0535 -2.33989,0.0803 -3.93982,0.0803 -1.57349,0 -2.85686,-0.0467 -3.8501,-0.14007 -0.99325,-0.0934 -1.71671,-0.3002 -2.17041,-0.62043 -0.31982,-0.22664 -0.55644,-0.46997 -0.70984,-0.72998 -0.1534,-0.26001 -0.26011,-0.5366 -0.32013,-0.82977 -0.06,-0.29317 -0.09,-0.60984 -0.09,-0.95001 0,-0.34017 0,-0.71024 0,-1.11023 l 4.02038,0 c 0,0.14689 0,0.3003 0,0.4602 0,0.15992 0.0333,0.30325 0.0998,0.43 0.0665,0.12675 0.18645,0.24007 0.3598,0.33996 0.17333,0.0999 0.44006,0.16327 0.80017,0.19013 0.17333,0.0134 0.49672,0.0267 0.97015,0.04 0.47342,0.0132 1.07004,0.0198 1.78986,0.0198 0.93342,0 1.69677,-0.007 2.29004,-0.0198 0.59325,-0.0132 1.05661,-0.0599 1.39007,-0.14007 0.33345,-0.0802 0.56009,-0.20019 0.67994,-0.36011 0.11981,-0.15991 0.17973,-0.39326 0.17974,-0.70007 -10e-6,-0.29297 -0.0599,-0.52287 -0.17974,-0.6897 -0.11985,-0.16682 -0.29309,-0.28686 -0.51972,-0.36011 -0.22666,-0.0732 -0.49674,-0.11657 -0.81024,-0.13 -0.31353,-0.0134 -0.65685,-0.0201 -1.02997,-0.0201 -1.30657,-0.013 -2.46654,-0.0163 -3.47992,-0.01 -1.01339,0.007 -1.89342,-0.0169 -2.64007,-0.0702 -0.74667,-0.0533 -1.37666,-0.14658 -1.88996,-0.27985 -0.51331,-0.13325 -0.92661,-0.34657 -1.23993,-0.63995 -0.31331,-0.29337 -0.53996,-0.68003 -0.67993,-1.15997 -0.13997,-0.47993 -0.20996,-1.08672 -0.20996,-1.82038 0,-0.65306 0.0567,-1.21957 0.16998,-1.69952 0.11332,-0.47993 0.30325,-0.88327 0.56977,-1.21002 0.26652,-0.32673 0.61645,-0.58013 1.0498,-0.76019 0.43335,-0.18004 0.97005,-0.30995 1.61011,-0.38971 0.42683,-0.0533 1.11694,-0.1067 2.07031,-0.16022 0.95336,-0.0535 2.14985,-0.0802 3.58948,-0.0803 0.76008,10e-6 1.44347,0.003 2.05017,0.0101 0.60668,0.007 1.14674,0.0367 1.62018,0.09 0.47341,0.0533 0.89008,0.13001 1.25,0.2301 0.35989,0.10011 0.6733,0.25005 0.94024,0.44983 0.29296,0.21363 0.52286,0.44038 0.6897,0.68023 0.16681,0.23988 0.29021,0.49989 0.37018,0.78003 0.0799,0.28017 0.13324,0.58351 0.15991,0.91004 0.0266,0.32655 0.04,0.68309 0.04,1.06964 z"
       style="fill:#ffffff;font-family:Eurostile MN;-inkscape-font-specification:Eurostile MN"
       id="path4487" />
    <path
       d="m 292.41702,450.08524 c -0.0134,-0.41341 -0.0735,-0.72672 -0.18005,-0.93995 -0.10662,-0.2132 -0.30661,-0.3665 -0.59998,-0.4599 -0.29338,-0.0934 -0.71005,-0.14342 -1.25,-0.15014 -0.53997,-0.007 -1.25001,-0.0101 -2.13012,-0.0101 -0.99977,1e-5 -1.80635,0.0101 -2.41974,0.0302 -0.61341,0.0202 -1.09345,0.11689 -1.44013,0.29022 -0.34668,0.17335 -0.58004,0.46327 -0.70007,0.86975 -0.12004,0.40651 -0.18006,0.99651 -0.18005,1.77002 -1e-5,0.98674 0.03,1.75009 0.09,2.29004 0.06,0.53996 0.24007,0.93995 0.54016,1.19995 0.30009,0.26002 0.76345,0.41332 1.39008,0.4599 0.62662,0.0466 1.50003,0.0699 2.62024,0.0699 0.83983,0 1.5398,0 2.09991,0 0.56009,0 1.00341,-0.0533 1.32996,-0.15991 0.32652,-0.10661 0.55978,-0.28992 0.69977,-0.54993 0.13996,-0.26001 0.20995,-0.65002 0.20996,-1.17005 l 4.00024,0 c -1e-5,0.10662 0.003,0.20326 0.0101,0.28992 0.007,0.0867 0.0101,0.18332 0.0101,0.28992 -10e-6,0.68034 -0.0433,1.28052 -0.13,1.80054 -0.0867,0.52002 -0.23673,0.95998 -0.45013,1.31988 -0.21344,0.35991 -0.5001,0.64657 -0.85999,0.85999 -0.35992,0.21342 -0.8066,0.34678 -1.34003,0.40008 -0.86671,0.0932 -1.68336,0.16307 -2.44995,0.20966 -0.76661,0.0466 -1.46994,0.0699 -2.10998,0.0699 -2.09352,0 -4.04684,-0.06 -5.85999,-0.18005 -0.70679,-0.0399 -1.30687,-0.19318 -1.80023,-0.4599 -0.49337,-0.26672 -0.89335,-0.65674 -1.19995,-1.17004 -0.3066,-0.51331 -0.52989,-1.15662 -0.66986,-1.92994 -0.13998,-0.77331 -0.20996,-1.69992 -0.20996,-2.77984 0,-0.67993 0.007,-1.3032 0.0198,-1.86981 0.0132,-0.56661 0.0632,-1.08662 0.14984,-1.56006 0.0867,-0.47342 0.22003,-0.90677 0.40009,-1.30005 0.18005,-0.39326 0.4367,-0.75001 0.76996,-1.07025 0.33325,-0.31982 0.72326,-0.5664 1.17004,-0.73975 0.44678,-0.17333 0.97015,-0.29997 1.57013,-0.37994 0.59997,-0.0799 1.28,-0.12999 2.0401,-0.15015 0.76009,-0.0201 1.61336,-0.0302 2.55982,-0.0302 1.6402,10e-6 2.9903,0.0334 4.05029,0.1001 1.05996,0.0667 1.89655,0.25341 2.50976,0.55999 0.61319,0.30662 1.03982,0.78666 1.27991,1.44013 0.24006,0.65349 0.36681,1.56678 0.38025,2.73987 z"
       style="fill:#ffffff;font-family:Eurostile MN;-inkscape-font-specification:Eurostile MN"
       id="path4489" />
    <path
       d="m 301.81949,451.48538 c -10e-6,0.67994 0.01,1.25326 0.0299,1.71997 0.0199,0.46672 0.0732,0.85338 0.15991,1.15998 0.0867,0.3066 0.22002,0.53996 0.40008,0.70007 0.18005,0.16012 0.43335,0.28015 0.75989,0.36011 0.32653,0.08 0.73323,0.12655 1.22009,0.13977 0.48685,0.0132 1.07676,0.0198 1.76972,0.0198 1.38671,1e-5 2.46672,-0.0166 3.24005,-0.0497 0.7733,-0.0332 1.34337,-0.16316 1.7102,-0.39001 0.36681,-0.22685 0.5902,-0.59692 0.67017,-1.11023 0.0799,-0.5133 0.11992,-1.24318 0.11993,-2.18964 -1e-5,-0.77351 -0.0367,-1.38356 -0.11016,-1.83014 -0.0735,-0.44656 -0.23012,-0.77992 -0.46997,-1.00006 -0.23989,-0.22012 -0.59318,-0.35684 -1.05988,-0.41016 -0.46673,-0.0533 -1.08684,-0.0799 -1.86035,-0.0799 -1.39975,1e-5 -2.53297,1e-5 -3.39966,0 -0.86671,1e-5 -1.53341,0.0834 -2.00012,0.25024 -0.46672,0.16684 -0.78004,0.45686 -0.93994,0.87006 -0.15992,0.41321 -0.23988,1.02651 -0.23987,1.8399 z m -4.14002,1.84021 c 0,-1.26667 0.0167,-2.35676 0.05,-3.27026 0.0334,-0.91348 0.16002,-1.68354 0.37995,-2.31018 0.21993,-0.62662 0.5666,-1.12324 1.04004,-1.48987 0.47342,-0.36661 1.15,-0.62987 2.02972,-0.7898 0.60017,-0.10659 1.69026,-0.16996 3.27026,-0.19012 1.57999,-0.0201 3.64989,-0.0302 6.20972,-0.0302 0.84024,10e-6 1.56696,0.0734 2.18018,0.22003 0.61318,0.1467 1.12984,0.3767 1.54998,0.69 0.42011,0.31333 0.75011,0.72338 0.98999,1.23017 0.23985,0.5068 0.40658,1.1201 0.50019,1.8399 0.0533,0.37354 0.0833,0.8603 0.09,1.46027 0.007,0.59998 0.0101,1.29995 0.0101,2.09991 -1e-5,0.97331 -0.06,1.79668 -0.18005,2.47009 -0.12005,0.67343 -0.32676,1.23678 -0.62012,1.69007 -0.29339,0.45329 -0.6834,0.80658 -1.17004,1.05987 -0.48667,0.2533 -1.09672,0.44332 -1.83014,0.57007 -0.73345,0.12675 -1.59679,0.20671 -2.59003,0.23987 -0.99325,0.0332 -2.14987,0.0497 -3.46984,0.0497 -1.49334,0 -2.77335,-0.0433 -3.84003,-0.13 -1.0667,-0.0867 -1.94001,-0.31332 -2.61994,-0.67993 -0.67993,-0.36662 -1.17991,-0.9199 -1.49993,-1.65985 -0.32003,-0.73995 -0.48005,-1.7632 -0.48005,-3.06977 z"
       style="fill:#ffffff;font-family:Eurostile MN;-inkscape-font-specification:Eurostile MN"
       id="path4491" />
    <path
       d="m 366.91409,445.38553 0,13.33984 -3.84033,0 0,-10.15991 -5.87952,10.15991 -3.26049,0 -5.79956,-10.15991 0,10.15991 -3.84034,0 0,-13.33984 6.45996,0 4.90052,8.83972 4.83947,-8.83972 z"
       style="fill:#ffffff;font-family:Eurostile MN;-inkscape-font-specification:Eurostile MN"
       id="path4493" />
    <path
       d="m 391.83597,445.38553 0,13.33984 -3.84033,0 0,-10.15991 -5.87952,10.15991 -3.2605,0 -5.79956,-10.15991 0,10.15991 -3.84033,0 0,-13.33984 6.45996,0 4.90051,8.83972 4.83948,-8.83972 z"
       style="fill:#ffffff;font-family:Eurostile MN;-inkscape-font-specification:Eurostile MN"
       id="path4495" />
    <path
       d="m 406.55765,450.08524 c -0.0134,-0.41341 -0.0735,-0.72672 -0.18006,-0.93995 -0.10662,-0.2132 -0.30661,-0.3665 -0.59997,-0.4599 -0.29339,-0.0934 -0.71006,-0.14342 -1.25,-0.15014 -0.53997,-0.007 -1.25001,-0.0101 -2.13013,-0.0101 -0.99976,1e-5 -1.80634,0.0101 -2.41974,0.0302 -0.61341,0.0202 -1.09345,0.11689 -1.44012,0.29022 -0.34669,0.17335 -0.58004,0.46327 -0.70008,0.86975 -0.12004,0.40651 -0.18005,0.99651 -0.18005,1.77002 0,0.98674 0.03,1.75009 0.09,2.29004 0.06,0.53996 0.24006,0.93995 0.54016,1.19995 0.30008,0.26002 0.76344,0.41332 1.39007,0.4599 0.62663,0.0466 1.50004,0.0699 2.62024,0.0699 0.83984,0 1.53981,0 2.09992,0 0.56009,0 1.0034,-0.0533 1.32995,-0.15991 0.32653,-0.10661 0.55979,-0.28992 0.69977,-0.54993 0.13996,-0.26001 0.20995,-0.65002 0.20996,-1.17005 l 4.00025,0 c -2e-5,0.10662 0.003,0.20326 0.0101,0.28992 0.007,0.0867 0.01,0.18332 0.0101,0.28992 -2e-5,0.68034 -0.0433,1.28052 -0.13001,1.80054 -0.0867,0.52002 -0.23673,0.95998 -0.45013,1.31988 -0.21344,0.35991 -0.5001,0.64657 -0.85999,0.85999 -0.35991,0.21342 -0.80659,0.34678 -1.34002,0.40008 -0.86672,0.0932 -1.68336,0.16307 -2.44995,0.20966 -0.76662,0.0466 -1.46994,0.0699 -2.10999,0.0699 -2.09351,0 -4.04684,-0.06 -5.85998,-0.18005 -0.70679,-0.0399 -1.30687,-0.19318 -1.80024,-0.4599 -0.49337,-0.26672 -0.89335,-0.65674 -1.19995,-1.17004 -0.3066,-0.51331 -0.52988,-1.15662 -0.66986,-1.92994 -0.13997,-0.77331 -0.20996,-1.69992 -0.20996,-2.77984 0,-0.67993 0.007,-1.3032 0.0198,-1.86981 0.0132,-0.56661 0.0632,-1.08662 0.14984,-1.56006 0.0867,-0.47342 0.22003,-0.90677 0.40008,-1.30005 0.18006,-0.39326 0.43671,-0.75001 0.76996,-1.07025 0.33325,-0.31982 0.72327,-0.5664 1.17005,-0.73975 0.44677,-0.17333 0.97015,-0.29997 1.57013,-0.37994 0.59997,-0.0799 1.28,-0.12999 2.0401,-0.15015 0.76008,-0.0201 1.61335,-0.0302 2.55981,-0.0302 1.64021,10e-6 2.9903,0.0334 4.05029,0.1001 1.05997,0.0667 1.89655,0.25341 2.50977,0.55999 0.61318,0.30662 1.03982,0.78666 1.27991,1.44013 0.24005,0.65349 0.3668,1.56678 0.38025,2.73987 z"
       style="fill:#ffffff;font-family:Eurostile MN;-inkscape-font-specification:Eurostile MN"
       id="path4497" />
    <path
       d="m 416.48013,445.38553 0,10.02014 9.17969,0 0,3.3197 -13.28003,0 0,-13.33984 z"
       style="fill:#ffffff;font-family:Eurostile MN;-inkscape-font-specification:Eurostile MN"
       id="path4499" />
    <path
       d="m 445.61038,445.38553 -6.24023,6.65954 6.71997,6.6803 -5.55969,0 -4.47998,-4.7998 -4.50013,4.7998 -5.52002,0 6.67969,-6.6803 -6.29944,-6.65954 5.41992,0 4.25965,4.77966 4.28039,-4.77966 z"
       style="fill:#ffffff;font-family:Eurostile MN;-inkscape-font-specification:Eurostile MN"
       id="path4501" />
    <path
       d="m 451.63638,445.38553 0,13.33984 -4.10034,0 0,-13.33984 z"
       style="fill:#ffffff;font-family:Eurostile MN;-inkscape-font-specification:Eurostile MN"
       id="path4503" />
  </g>
  <path
     sodipodi:type="arc"
     style="fill:#ffffff;fill-opacity:1;stroke:none"
     id="path4407"
     sodipodi:cx="312.98312"
     sodipodi:cy="453.84045"
     sodipodi:rx="3.4471455"
     sodipodi:ry="3.5355339"
     d="m 316.43027,453.84045 a 3.4471455,3.5355339 0 1 1 -6.89429,0 3.4471455,3.5355339 0 1 1 6.89429,0 z"
     transform="matrix(1.0153328,0,0,0.98994949,11.575545,3.0293444)" />
  <g
     transform="matrix(0.5,-0.8660254,0.8660254,0.5,0,0)"
     style="font-size:20px;font-style:normal;font-variant:normal;font-weight:normal;font-stretch:normal;text-align:center;line-height:125%;letter-spacing:0px;word-spacing:0px;text-anchor:middle;fill:#ffffff;fill-opacity:1;stroke:none;font-family:FederationStarfleet;-inkscape-font-specification:FederationStarfleet"
     id="text4399-7">
    <path
       d="m -297.96288,226.57544 c -0.0168,-0.38298 -0.0834,-0.68702 -0.19989,-0.91209 -0.11649,-0.22506 -0.32057,-0.39176 -0.61225,-0.50011 -0.29172,-0.10833 -0.67509,-0.17915 -1.15014,-0.21248 -0.47507,-0.0333 -1.08771,-0.05 -1.83792,-0.05 -0.13327,1e-5 -0.24161,1e-5 -0.32501,0 -0.0834,1e-5 -0.19176,0.008 -0.32501,0.0252 -1.08339,0.0499 -1.99166,0.0748 -2.72484,0.0748 -0.73319,2e-5 -1.32485,0.0375 -1.77498,0.11254 -0.45014,0.075 -0.77515,0.21249 -0.97503,0.41236 -0.1999,0.19991 -0.29985,0.53331 -0.29984,1.00022 -10e-6,0.41657 0.15004,0.729 0.45013,0.93727 0.30009,0.20829 0.71665,0.32083 1.2497,0.3376 0.75021,0.0168 1.4628,0.0334 2.13776,0.05 0.67493,0.0165 1.3041,0.0248 1.88751,0.0248 0.34992,10e-6 0.71244,-0.004 1.08757,-0.0122 0.3751,-0.008 0.72923,-0.0122 1.06239,-0.0122 1.38345,1e-5 2.58342,0.0374 3.59993,0.11216 1.01647,0.0748 1.85392,0.27886 2.51236,0.61226 0.6584,0.33341 1.14591,0.84178 1.46256,1.52511 0.31659,0.68335 0.4749,1.64173 0.47493,2.87514 -3e-5,0.8667 -0.0833,1.60001 -0.24987,2.19993 -0.16659,0.59993 -0.42904,1.09571 -0.78735,1.48735 -0.35835,0.39165 -0.81255,0.69581 -1.36261,0.91248 -0.5501,0.21668 -1.20839,0.36672 -1.97487,0.45013 -0.45015,0.0498 -1.31685,0.10822 -2.6001,0.1751 -1.28327,0.0669 -2.92486,0.10033 -4.92477,0.10033 -1.96687,0 -3.57107,-0.0584 -4.81262,-0.1751 -1.24156,-0.11673 -2.1459,-0.37524 -2.71302,-0.77553 -0.39978,-0.2833 -0.69554,-0.58746 -0.88729,-0.91247 -0.19176,-0.32501 -0.32515,-0.67075 -0.40017,-1.03722 -0.075,-0.36646 -0.11253,-0.7623 -0.11253,-1.18751 0,-0.42521 0,-0.88781 0,-1.38779 l 5.02548,0 c 0,0.18362 0,0.37537 0,0.57526 0,0.19989 0.0416,0.37905 0.12474,0.53749 0.0832,0.15844 0.23307,0.30009 0.44976,0.42495 0.21666,0.12488 0.55007,0.20409 1.00021,0.23766 0.21667,0.0168 0.6209,0.0335 1.21269,0.05 0.59178,0.0165 1.33755,0.0248 2.23732,0.0248 1.16678,0 2.12096,-0.008 2.86255,-0.0248 0.74156,-0.0165 1.32076,-0.0749 1.73759,-0.17509 0.41681,-0.1002 0.70011,-0.25024 0.84992,-0.45014 0.14977,-0.19988 0.22467,-0.49158 0.22469,-0.87509 -2e-5,-0.3662 -0.0749,-0.65358 -0.22469,-0.86212 -0.14981,-0.20853 -0.36635,-0.35858 -0.64964,-0.45013 -0.28332,-0.0916 -0.62092,-0.14572 -1.01281,-0.16251 -0.39191,-0.0168 -0.82106,-0.0252 -1.28746,-0.0252 -1.63321,-0.0163 -3.08317,-0.0203 -4.3499,-0.0122 -1.26674,0.008 -2.36677,-0.0211 -3.30009,-0.0877 -0.93333,-0.0666 -1.72081,-0.18323 -2.36244,-0.34981 -0.64164,-0.16657 -1.15827,-0.43322 -1.54991,-0.79994 -0.39165,-0.36671 -0.67495,-0.85004 -0.84992,-1.44997 -0.17497,-0.59991 -0.26245,-1.3584 -0.26245,-2.27547 0,-0.81633 0.0708,-1.52446 0.21248,-2.1244 0.14165,-0.59991 0.37905,-1.10409 0.7122,-1.51253 0.33315,-0.40841 0.77057,-0.72516 1.31226,-0.95024 0.54168,-0.22505 1.21256,-0.38743 2.01263,-0.48714 0.53355,-0.0666 1.39618,-0.13337 2.58789,-0.20027 1.19171,-0.0669 2.68732,-0.10031 4.48685,-0.10032 0.9501,1e-5 1.80434,0.004 2.56271,0.0126 0.75835,0.008 1.43342,0.0459 2.02523,0.11254 0.59177,0.0666 1.1126,0.16252 1.5625,0.28763 0.44986,0.12513 0.84163,0.31256 1.17531,0.56228 0.36619,0.26705 0.65356,0.55048 0.86212,0.8503 0.20851,0.29985 0.36275,0.62486 0.46272,0.97504 0.0999,0.3502 0.16655,0.72938 0.19989,1.13754 0.0333,0.40818 0.0499,0.85387 0.05,1.33705 z"
       style="font-size:25px;fill:#ffffff;font-family:Eurostile MN;-inkscape-font-specification:Eurostile MN"
       id="path4506" />
    <path
       d="m -278.67577,225.65076 0,12.5 -5.12466,0 0,-12.5 -7.47528,0 0,-4.17481 19.9501,0 0,4.17481 z"
       style="font-size:25px;fill:#ffffff;font-family:Eurostile MN;-inkscape-font-specification:Eurostile MN"
       id="path4508" />
    <path
       d="m -254.44557,231.67569 -3.54996,-6.60019 -3.59955,6.60019 z m 1.85013,3.45001 -10.775,0 -1.64947,3.02506 -5.65033,0 9.30023,-16.67481 6.84967,0 9.10034,16.67481 -5.59997,0 z"
       style="font-size:25px;fill:#ffffff;font-family:Eurostile MN;-inkscape-font-specification:Eurostile MN"
       id="path4510" />
    <path
       d="m -238.44215,229.80038 7.62481,0 c 0.13325,1e-5 0.24159,0.004 0.32502,0.0126 0.0834,0.008 0.19173,0.0126 0.32501,0.0126 0.59965,1e-5 1.07039,-0.0333 1.4122,-0.0999 0.34178,-0.0666 0.60016,-0.18742 0.77514,-0.3624 0.17495,-0.17496 0.28329,-0.41249 0.32502,-0.71259 0.0417,-0.30007 0.0625,-0.68332 0.0626,-1.14974 -2e-5,-0.45013 -0.0459,-0.80439 -0.13771,-1.06278 -0.0918,-0.25837 -0.24607,-0.45839 -0.46273,-0.60005 -0.21669,-0.14164 -0.50826,-0.22913 -0.87471,-0.26245 -0.36648,-0.0333 -0.82488,-0.05 -1.37519,-0.05 l -7.99942,0 z m 0,4.05045 0,4.29993 -5.12543,0 0,-16.67481 15.49988,0 c 1.03351,2e-5 1.9044,0.0958 2.61268,0.28725 0.70824,0.19151 1.28325,0.49567 1.72501,0.91247 0.44172,0.41684 0.75847,0.95853 0.95024,1.62507 0.19173,0.66656 0.28761,1.48329 0.28763,2.45018 -2e-5,0.99997 -0.0792,1.79164 -0.23766,2.37503 -0.15846,0.5834 -0.39192,1.04167 -0.70038,1.37481 -0.3085,0.33316 -0.68768,0.58315 -1.13754,0.74997 -0.4499,0.16684 -0.95814,0.33341 -1.52473,0.49973 0.46639,0.1002 0.908,0.18781 1.32484,0.26283 0.4168,0.075 0.77932,0.22088 1.08757,0.43755 0.30821,0.21668 0.5498,0.52923 0.72479,0.93765 0.17495,0.40843 0.26243,0.99589 0.26246,1.76239 l 0,2.99988 -5.12467,0 0,-2.20032 c -2e-5,-0.71665 -0.14586,-1.24575 -0.43754,-1.5873 -0.29172,-0.34153 -0.87931,-0.51231 -1.76278,-0.51231 z"
       style="font-size:25px;fill:#ffffff;font-family:Eurostile MN;-inkscape-font-specification:Eurostile MN"
       id="path4512" />
    <path
       d="m -219.93477,238.15076 0,-16.67481 17.67502,0 0,3.90015 -12.6503,0 0,3.27453 12.00028,0 0,3.74985 -12.00028,0 0,5.75028 z"
       style="font-size:25px;fill:#ffffff;font-family:Eurostile MN;-inkscape-font-specification:Eurostile MN"
       id="path4514" />
    <path
       d="m -195.20561,221.47595 0,12.52518 11.47461,0 0,4.14963 -16.60004,0 0,-16.67481 z"
       style="font-size:25px;fill:#ffffff;font-family:Eurostile MN;-inkscape-font-specification:Eurostile MN"
       id="path4516" />
    <path
       d="m -182.46758,238.15076 0,-16.67481 18.59971,0 0,3.74985 -13.57499,0 0,2.89993 12.67472,0 0,3.29972 -12.67472,0 0,2.97546 13.57499,0 0,3.74985 z"
       style="font-size:25px;fill:#ffffff;font-family:Eurostile MN;-inkscape-font-specification:Eurostile MN"
       id="path4518" />
    <path
       d="m -161.52031,238.15076 0,-16.67481 18.5997,0 0,3.74985 -13.57498,0 0,2.89993 12.67471,0 0,3.29972 -12.67471,0 0,2.97546 13.57498,0 0,3.74985 z"
       style="font-size:25px;fill:#ffffff;font-family:Eurostile MN;-inkscape-font-specification:Eurostile MN"
       id="path4520" />
    <path
       d="m -128.77342,225.65076 0,12.5 -5.12467,0 0,-12.5 -7.47528,0 0,-4.17481 19.95011,0 0,4.17481 z"
       style="font-size:25px;fill:#ffffff;font-family:Eurostile MN;-inkscape-font-specification:Eurostile MN"
       id="path4522" />
    <path
       d="m -99.02565,231.67569 -3.54996,-6.60019 -3.59955,6.60019 z m 1.850128,3.45001 -10.774998,0 -1.64947,3.02506 -5.65033,0 9.30023,-16.67481 6.849672,0 9.100342,16.67481 -5.599976,0 z"
       style="font-size:25px;fill:#ffffff;font-family:Eurostile MN;-inkscape-font-specification:Eurostile MN"
       id="path4524" />
    <path
       d="m -72.647781,227.35059 c -0.0168,-0.51676 -0.09182,-0.9084 -0.225068,-1.17493 -0.133276,-0.26651 -0.383266,-0.45813 -0.749969,-0.57488 -0.366735,-0.11671 -0.887568,-0.17927 -1.5625,-0.18768 -0.674961,-0.008 -1.562513,-0.0126 -2.662659,-0.0126 -1.249705,2e-5 -2.257929,0.0126 -3.024673,0.0378 -0.766762,0.0252 -1.366814,0.14611 -1.800156,0.36278 -0.433356,0.21668 -0.725053,0.57908 -0.875091,1.08718 -0.150051,0.50813 -0.225073,1.24564 -0.225067,2.21253 -6e-6,1.23343 0.0375,2.18761 0.112533,2.86255 0.07502,0.67495 0.300083,1.17493 0.675202,1.49994 0.375104,0.32501 0.954302,0.51664 1.737594,0.57487 0.783275,0.0582 1.875041,0.0874 3.275299,0.0874 1.049792,0 1.924756,0 2.624893,0 0.700109,0 1.254257,-0.0666 1.662445,-0.19989 0.408157,-0.13326 0.699726,-0.36239 0.874711,-0.68741 0.17495,-0.32501 0.262434,-0.81253 0.262451,-1.46256 l 5.000305,0 c -2.2e-5,0.13327 0.0042,0.25407 0.01259,0.3624 0.0084,0.10834 0.01257,0.22914 0.01259,0.3624 -2.2e-5,0.85043 -0.05419,1.60065 -0.162506,2.25067 -0.108359,0.65003 -0.295915,1.19998 -0.562668,1.64986 -0.266796,0.44988 -0.625123,0.8082 -1.074982,1.07498 -0.4499,0.26677 -1.008244,0.43347 -1.675033,0.5001 -1.083392,0.11648 -2.104204,0.20384 -3.062439,0.26207 -0.958267,0.0582 -1.837427,0.0874 -2.637482,0.0874 -2.616893,0 -5.058551,-0.075 -7.324982,-0.22507 -0.883488,-0.0498 -1.633584,-0.24147 -2.25029,-0.57487 -0.616712,-0.33341 -1.116691,-0.82092 -1.499939,-1.46256 -0.383251,-0.64163 -0.662359,-1.44576 -0.837326,-2.41241 -0.174968,-0.96664 -0.262452,-2.12491 -0.262451,-3.47481 -10e-7,-0.8499 0.0083,-1.62899 0.0248,-2.33726 0.01653,-0.70826 0.07896,-1.35828 0.187301,-1.95008 0.108337,-0.59177 0.275039,-1.13346 0.500107,-1.62506 0.225066,-0.49157 0.545881,-0.93751 0.962448,-1.33781 0.416562,-0.39977 0.90408,-0.70799 1.462555,-0.92469 0.558467,-0.21665 1.212687,-0.37496 1.962662,-0.47493 0.749963,-0.0999 1.600004,-0.16248 2.550125,-0.18768 0.950105,-0.0252 2.016693,-0.0378 3.199768,-0.0378 2.050259,1e-5 3.73788,0.0417 5.062866,0.12512 1.324954,0.0834 2.370689,0.31676 3.137207,0.7 0.76648,0.38326 1.299774,0.98331 1.599884,1.80015 0.300068,0.81687 0.458505,1.95848 0.475312,3.42484 z"
       style="font-size:25px;fill:#ffffff;font-family:Eurostile MN;-inkscape-font-specification:Eurostile MN"
       id="path4526" />
    <path
       d="m -50.295181,231.67569 -3.549958,-6.60019 -3.599548,6.60019 z m 1.850128,3.45001 -10.774994,0 -1.649475,3.02506 -5.65033,0 9.300232,-16.67481 6.849671,0 9.100341,16.67481 -5.599975,0 z"
       style="font-size:25px;fill:#ffffff;font-family:Eurostile MN;-inkscape-font-specification:Eurostile MN"
       id="path4528" />
    <path
       d="m -34.31694,234.10107 8.549499,0 c 0.733423,1e-5 1.333475,-0.0501 1.800156,-0.15029 0.466647,-0.1002 0.833366,-0.30441 1.100159,-0.61265 0.266756,-0.30822 0.450115,-0.74983 0.550079,-1.32484 0.09993,-0.57499 0.149899,-1.33755 0.149917,-2.28767 -1.8e-5,-0.71665 -0.03333,-1.34162 -0.09994,-1.87493 -0.06665,-0.53328 -0.2083,-0.96663 -0.424957,-1.30005 -0.216693,-0.33339 -0.516655,-0.58338 -0.899887,-0.74997 -0.383267,-0.16656 -0.891765,-0.24985 -1.525497,-0.24986 l -9.199524,0 z m -5.125428,4.04969 0,-16.64963 14.749909,0 c 0.450117,2e-5 0.987735,0.0249 1.612854,0.0748 0.625083,0.0499 1.329276,0.11649 2.112579,0.19989 1.199829,0.11649 2.149814,0.75392 2.849961,1.91231 0.7001,1.1584 1.050162,2.82937 1.050186,5.01289 -2.4e-5,0.51677 -0.01261,1.1584 -0.03777,1.9249 -0.0252,0.7665 -0.05432,1.64973 -0.08736,2.64968 -0.06665,1.51673 -0.595879,2.70844 -1.587677,3.57514 -0.991843,0.8667 -2.337667,1.30005 -4.037476,1.30005 z"
       style="font-size:25px;fill:#ffffff;font-family:Eurostile MN;-inkscape-font-specification:Eurostile MN"
       id="path4530" />
    <path
       d="m -15.133591,238.15076 0,-16.67481 18.5997012,0 0,3.74985 -13.5749812,0 0,2.89993 12.6747127,0 0,3.29972 -12.6747127,0 0,2.97546 13.5749812,0 0,3.74985 z"
       style="font-size:25px;fill:#ffffff;font-family:Eurostile MN;-inkscape-font-specification:Eurostile MN"
       id="path4532" />
    <path
       d="m 34.4384,221.47595 0,16.67481 -4.800415,0 0,-12.69989 -7.349396,12.69989 -4.075622,0 -7.249451,-12.69989 0,12.69989 -4.8004148,0 0,-16.67481 8.0749508,0 6.125641,11.04965 6.049347,-11.04965 z"
       style="font-size:25px;fill:#ffffff;font-family:Eurostile MN;-inkscape-font-specification:Eurostile MN"
       id="path4534" />
    <path
       d="m 48.215561,228.3508 5.599975,-6.87485 6.375123,0 -9.349823,10.82459 0,5.85022 -5.200196,0 0,-5.85022 -9.474945,-10.82459 6.400299,0 z"
       style="font-size:25px;fill:#ffffff;font-family:Eurostile MN;-inkscape-font-specification:Eurostile MN"
       id="path4536" />
  </g>
  <g
     transform="matrix(0.5,0.8660254,-0.8660254,0.5,0,0)"
     style="font-size:20px;font-style:normal;font-variant:normal;font-weight:normal;font-stretch:normal;text-align:center;line-height:125%;letter-spacing:0px;word-spacing:0px;text-anchor:middle;fill:#ffffff;fill-opacity:1;stroke:none;font-family:FederationStarfleet;-inkscape-font-specification:FederationStarfleet"
     id="text4399-7-2">
    <path
       d="m 227.31216,-232.61427 0,-16.67481 18.59971,0 0,3.74985 -13.57499,0 0,2.89993 12.67472,0 0,3.29972 -12.67472,0 0,2.97546 13.57499,0 0,3.74985 z"
       style="font-size:25px;fill:#ffffff;font-family:Eurostile MN;-inkscape-font-specification:Eurostile MN"
       id="path4539" />
    <path
       d="m 271.9342,-249.28908 -7.80029,8.32443 8.39996,8.35038 -6.94961,0 -5.59998,-5.99976 -5.62515,5.99976 -6.90002,0 8.34961,-8.35038 -7.8743,-8.32443 6.7749,0 5.32455,5.97458 5.3505,-5.97458 z"
       style="font-size:25px;fill:#ffffff;font-family:Eurostile MN;-inkscape-font-specification:Eurostile MN"
       id="path4541" />
    <path
       d="m 294.93378,-239.08934 -3.54996,-6.60019 -3.59955,6.60019 z m 1.85013,3.45001 -10.775,0 -1.64947,3.02506 -5.65033,0 9.30023,-16.67481 6.84967,0 9.10034,16.67481 -5.59998,0 z"
       style="font-size:25px;fill:#ffffff;font-family:Eurostile MN;-inkscape-font-specification:Eurostile MN"
       id="path4543" />
    <path
       d="m 320.36179,-244.18959 c -0.0168,-0.38298 -0.0834,-0.68702 -0.19989,-0.91209 -0.1165,-0.22506 -0.32058,-0.39176 -0.61226,-0.50011 -0.29172,-0.10833 -0.67509,-0.17915 -1.15013,-0.21248 -0.47507,-0.0333 -1.08771,-0.05 -1.83793,-0.05 -0.13327,1e-5 -0.24161,1e-5 -0.32501,0 -0.0834,1e-5 -0.19176,0.008 -0.32501,0.0252 -1.08338,0.0499 -1.99166,0.0748 -2.72484,0.0748 -0.73319,2e-5 -1.32485,0.0375 -1.77498,0.11254 -0.45014,0.075 -0.77515,0.21249 -0.97503,0.41236 -0.1999,0.19991 -0.29984,0.53331 -0.29984,1.00022 0,0.41657 0.15004,0.729 0.45014,0.93727 0.30008,0.20829 0.71664,0.32083 1.24969,0.3376 0.75022,0.0168 1.4628,0.0335 2.13776,0.05 0.67493,0.0165 1.3041,0.0248 1.88751,0.0248 0.34992,1e-5 0.71245,-0.004 1.08757,-0.0122 0.3751,-0.008 0.72923,-0.0122 1.06239,-0.0122 1.38345,1e-5 2.58343,0.0374 3.59993,0.11216 1.01647,0.0748 1.85393,0.27886 2.51236,0.61226 0.6584,0.33341 1.14592,0.84178 1.46256,1.52511 0.3166,0.68335 0.4749,1.64173 0.47493,2.87514 -3e-5,0.8667 -0.0833,1.60001 -0.24987,2.19993 -0.16659,0.59993 -0.42904,1.09571 -0.78735,1.48735 -0.35835,0.39165 -0.81255,0.69581 -1.36261,0.91248 -0.5501,0.21668 -1.20839,0.36672 -1.97487,0.45013 -0.45015,0.0498 -1.31685,0.10822 -2.6001,0.1751 -1.28327,0.0669 -2.92486,0.10033 -4.92477,0.10033 -1.96687,0 -3.57107,-0.0584 -4.81262,-0.1751 -1.24156,-0.11673 -2.1459,-0.37524 -2.71301,-0.77553 -0.39979,-0.2833 -0.69555,-0.58746 -0.8873,-0.91247 -0.19176,-0.32501 -0.32514,-0.67075 -0.40017,-1.03722 -0.075,-0.36646 -0.11253,-0.7623 -0.11253,-1.18751 0,-0.42521 0,-0.88781 0,-1.38779 l 5.02548,0 c 0,0.18362 0,0.37537 0,0.57526 0,0.19989 0.0416,0.37905 0.12474,0.53749 0.0832,0.15844 0.23308,0.30009 0.44976,0.42495 0.21666,0.12488 0.55007,0.20409 1.00021,0.23766 0.21667,0.0168 0.6209,0.0335 1.21269,0.05 0.59178,0.0165 1.33755,0.0248 2.23732,0.0248 1.16678,0 2.12096,-0.008 2.86255,-0.0248 0.74156,-0.0165 1.32076,-0.0749 1.7376,-0.17509 0.4168,-0.1002 0.7001,-0.25024 0.84991,-0.45014 0.14977,-0.19988 0.22467,-0.49158 0.22469,-0.87509 -2e-5,-0.3662 -0.0749,-0.65358 -0.22469,-0.86212 -0.14981,-0.20853 -0.36635,-0.35858 -0.64964,-0.45013 -0.28332,-0.0916 -0.62092,-0.14572 -1.0128,-0.16251 -0.39192,-0.0168 -0.82107,-0.0252 -1.28746,-0.0252 -1.63322,-0.0163 -3.08318,-0.0203 -4.3499,-0.0122 -1.26675,0.008 -2.36678,-0.0211 -3.3001,-0.0877 -0.93333,-0.0666 -1.72081,-0.18323 -2.36244,-0.34981 -0.64164,-0.16657 -1.15827,-0.43322 -1.54991,-0.79994 -0.39165,-0.36671 -0.67495,-0.85004 -0.84992,-1.44997 -0.17497,-0.59991 -0.26245,-1.3584 -0.26245,-2.27547 0,-0.81633 0.0708,-1.52446 0.21248,-2.1244 0.14165,-0.59991 0.37905,-1.10409 0.7122,-1.51253 0.33315,-0.40841 0.77057,-0.72516 1.31226,-0.95024 0.54168,-0.22505 1.21256,-0.38743 2.01263,-0.48714 0.53355,-0.0666 1.39618,-0.13337 2.5879,-0.20027 1.1917,-0.0669 2.68731,-0.10031 4.48684,-0.10032 0.9501,1e-5 1.80434,0.004 2.56272,0.0126 0.75834,0.008 1.43342,0.0459 2.02522,0.11254 0.59177,0.0666 1.1126,0.16252 1.5625,0.28763 0.44986,0.12513 0.84163,0.31256 1.17531,0.56228 0.36619,0.26705 0.65356,0.55048 0.86212,0.8503 0.20851,0.29985 0.36276,0.62486 0.46272,0.97504 0.0999,0.3502 0.16656,0.72938 0.19989,1.13754 0.0333,0.40818 0.0499,0.85387 0.05,1.33705 z"
       style="font-size:25px;fill:#ffffff;font-family:Eurostile MN;-inkscape-font-specification:Eurostile MN"
       id="path4545" />
    <path
       d="m 339.6489,-245.11427 0,12.5 -5.12467,0 0,-12.5 -7.47528,0 0,-4.17481 19.9501,0 0,4.17481 z"
       style="font-size:25px;fill:#ffffff;font-family:Eurostile MN;-inkscape-font-specification:Eurostile MN"
       id="path4547" />
    <path
       d="m 353.95477,-240.96465 7.62482,0 c 0.13325,1e-5 0.24158,0.004 0.32501,0.0126 0.0834,0.008 0.19174,0.0126 0.32501,0.0126 0.59966,1e-5 1.07039,-0.0333 1.41221,-0.0999 0.34178,-0.0666 0.60016,-0.18742 0.77514,-0.3624 0.17495,-0.17496 0.28329,-0.41249 0.32501,-0.71259 0.0417,-0.30007 0.0626,-0.68332 0.0626,-1.14974 -10e-6,-0.45013 -0.0459,-0.80439 -0.13771,-1.06278 -0.0918,-0.25837 -0.24606,-0.45839 -0.46272,-0.60005 -0.21669,-0.14164 -0.50826,-0.22913 -0.87471,-0.26245 -0.36648,-0.0333 -0.82488,-0.05 -1.3752,-0.05 l -7.99942,0 z m 0,4.05045 0,4.29993 -5.12542,0 0,-16.67481 15.49987,0 c 1.03351,2e-5 1.90441,0.0958 2.61269,0.28725 0.70824,0.19151 1.28324,0.49567 1.72501,0.91247 0.44172,0.41684 0.75846,0.95853 0.95024,1.62507 0.19173,0.66656 0.2876,1.48329 0.28763,2.45018 -3e-5,0.99997 -0.0793,1.79164 -0.23766,2.37503 -0.15846,0.5834 -0.39192,1.04167 -0.70038,1.37481 -0.3085,0.33316 -0.68768,0.58315 -1.13754,0.74997 -0.4499,0.16684 -0.95815,0.33341 -1.52474,0.49973 0.46639,0.1002 0.90801,0.18781 1.32485,0.26283 0.4168,0.075 0.77932,0.22088 1.08757,0.43755 0.3082,0.21668 0.5498,0.52923 0.72479,0.93765 0.17495,0.40843 0.26243,0.99589 0.26245,1.76239 l 0,2.99988 -5.12466,0 0,-2.20032 c -2e-5,-0.71665 -0.14587,-1.24575 -0.43755,-1.5873 -0.29171,-0.34153 -0.8793,-0.51231 -1.76277,-0.51231 z"
       style="font-size:25px;fill:#ffffff;font-family:Eurostile MN;-inkscape-font-specification:Eurostile MN"
       id="path4549" />
    <path
       d="m 377.56241,-249.28908 0,16.67481 -5.12543,0 0,-16.67481 z"
       style="font-size:25px;fill:#ffffff;font-family:Eurostile MN;-inkscape-font-specification:Eurostile MN"
       id="path4551" />
    <path
       d="m 395.01999,-244.18959 c -0.0168,-0.38298 -0.0834,-0.68702 -0.19989,-0.91209 -0.11649,-0.22506 -0.32058,-0.39176 -0.61226,-0.50011 -0.29171,-0.10833 -0.67509,-0.17915 -1.15013,-0.21248 -0.47507,-0.0333 -1.08771,-0.05 -1.83792,-0.05 -0.13327,1e-5 -0.24161,1e-5 -0.32501,0 -0.0834,1e-5 -0.19177,0.008 -0.32502,0.0252 -1.08338,0.0499 -1.99166,0.0748 -2.72484,0.0748 -0.73319,2e-5 -1.32485,0.0375 -1.77497,0.11254 -0.45014,0.075 -0.77516,0.21249 -0.97504,0.41236 -0.1999,0.19991 -0.29984,0.53331 -0.29984,1.00022 0,0.41657 0.15004,0.729 0.45014,0.93727 0.30008,0.20829 0.71665,0.32083 1.24969,0.3376 0.75022,0.0168 1.4628,0.0335 2.13776,0.05 0.67494,0.0165 1.30411,0.0248 1.88751,0.0248 0.34993,1e-5 0.71245,-0.004 1.08757,-0.0122 0.3751,-0.008 0.72923,-0.0122 1.0624,-0.0122 1.38344,1e-5 2.58342,0.0374 3.59993,0.11216 1.01647,0.0748 1.85392,0.27886 2.51235,0.61226 0.6584,0.33341 1.14592,0.84178 1.46256,1.52511 0.3166,0.68335 0.47491,1.64173 0.47493,2.87514 -2e-5,0.8667 -0.0833,1.60001 -0.24986,2.19993 -0.1666,0.59993 -0.42905,1.09571 -0.78736,1.48735 -0.35834,0.39165 -0.81255,0.69581 -1.36261,0.91248 -0.55009,0.21668 -1.20838,0.36672 -1.97487,0.45013 -0.45015,0.0498 -1.31684,0.10822 -2.60009,0.1751 -1.28328,0.0669 -2.92487,0.10033 -4.92478,0.10033 -1.96686,0 -3.57107,-0.0584 -4.81262,-0.1751 -1.24156,-0.11673 -2.1459,-0.37524 -2.71301,-0.77553 -0.39978,-0.2833 -0.69555,-0.58746 -0.8873,-0.91247 -0.19175,-0.32501 -0.32514,-0.67075 -0.40016,-1.03722 -0.075,-0.36646 -0.11254,-0.7623 -0.11254,-1.18751 0,-0.42521 0,-0.88781 0,-1.38779 l 5.02549,0 c -1e-5,0.18362 -1e-5,0.37537 0,0.57526 -1e-5,0.19989 0.0416,0.37905 0.12474,0.53749 0.0831,0.15844 0.23307,0.30009 0.44975,0.42495 0.21667,0.12488 0.55007,0.20409 1.00021,0.23766 0.21667,0.0168 0.6209,0.0335 1.2127,0.05 0.59177,0.0165 1.33755,0.0248 2.23732,0.0248 1.16677,0 2.12095,-0.008 2.86254,-0.0248 0.74157,-0.0165 1.32076,-0.0749 1.7376,-0.17509 0.4168,-0.1002 0.70011,-0.25024 0.84991,-0.45014 0.14978,-0.19988 0.22467,-0.49158 0.22469,-0.87509 -2e-5,-0.3662 -0.0749,-0.65358 -0.22469,-0.86212 -0.1498,-0.20853 -0.36635,-0.35858 -0.64964,-0.45013 -0.28332,-0.0916 -0.62092,-0.14572 -1.0128,-0.16251 -0.39191,-0.0168 -0.82107,-0.0252 -1.28746,-0.0252 -1.63321,-0.0163 -3.08318,-0.0203 -4.3499,-0.0122 -1.26674,0.008 -2.36677,-0.0211 -3.3001,-0.0877 -0.93333,-0.0666 -1.72081,-0.18323 -2.36244,-0.34981 -0.64163,-0.16657 -1.15827,-0.43322 -1.54991,-0.79994 -0.39164,-0.36671 -0.67495,-0.85004 -0.84991,-1.44997 -0.17497,-0.59991 -0.26246,-1.3584 -0.26245,-2.27547 -10e-6,-0.81633 0.0708,-1.52446 0.21247,-2.1244 0.14166,-0.59991 0.37906,-1.10409 0.71221,-1.51253 0.33315,-0.40841 0.77056,-0.72516 1.31225,-0.95024 0.54169,-0.22505 1.21256,-0.38743 2.01264,-0.48714 0.53354,-0.0666 1.39617,-0.13337 2.58789,-0.20027 1.1917,-0.0669 2.68732,-0.10031 4.48685,-0.10032 0.9501,1e-5 1.80433,0.004 2.56271,0.0126 0.75835,0.008 1.43342,0.0459 2.02522,0.11254 0.59177,0.0666 1.1126,0.16252 1.5625,0.28763 0.44986,0.12513 0.84163,0.31256 1.17531,0.56228 0.36619,0.26705 0.65356,0.55048 0.86212,0.8503 0.20852,0.29985 0.36276,0.62486 0.46272,0.97504 0.0999,0.3502 0.16656,0.72938 0.19989,1.13754 0.0333,0.40818 0.05,0.85387 0.05,1.33705 z"
       style="font-size:25px;fill:#ffffff;font-family:Eurostile MN;-inkscape-font-specification:Eurostile MN"
       id="path4553" />
    <path
       d="m 408.23181,-237.26439 0,5.30014 c -10e-6,0.73344 -0.0833,1.34176 -0.24986,1.82495 -0.16658,0.48319 -0.42903,0.86644 -0.78735,1.14975 -0.35834,0.2833 -0.82081,0.48752 -1.38741,0.61264 -0.56661,0.12512 -1.24156,0.18768 -2.02484,0.18769 -0.21668,-1e-5 -0.43755,-1e-5 -0.66261,0 -0.22507,-1e-5 -0.42916,-0.008 -0.61226,-0.0252 l 0,-2.62451 c 0.0997,0.0163 0.18704,0.0328 0.26207,0.0496 0.075,0.0168 0.16263,0.0252 0.26283,0.0252 0.61645,-1e-5 1.02882,-0.16251 1.23711,-0.48752 0.20827,-0.32502 0.32081,-0.77922 0.3376,-1.36261 l -1.4,0 0,-4.65012 z"
       style="font-size:25px;fill:#ffffff;font-family:Eurostile MN;-inkscape-font-specification:Eurostile MN"
       id="path4555" />
    <path
       d="m 431.25046,-244.18959 c -0.0168,-0.38298 -0.0834,-0.68702 -0.19989,-0.91209 -0.11649,-0.22506 -0.32058,-0.39176 -0.61226,-0.50011 -0.29171,-0.10833 -0.67509,-0.17915 -1.15013,-0.21248 -0.47507,-0.0333 -1.08771,-0.05 -1.83792,-0.05 -0.13328,1e-5 -0.24161,1e-5 -0.32502,0 -0.0834,1e-5 -0.19176,0.008 -0.32501,0.0252 -1.08338,0.0499 -1.99166,0.0748 -2.72484,0.0748 -0.73319,2e-5 -1.32485,0.0375 -1.77497,0.11254 -0.45015,0.075 -0.77516,0.21249 -0.97504,0.41236 -0.1999,0.19991 -0.29984,0.53331 -0.29984,1.00022 0,0.41657 0.15004,0.729 0.45014,0.93727 0.30008,0.20829 0.71664,0.32083 1.24969,0.3376 0.75022,0.0168 1.4628,0.0335 2.13776,0.05 0.67494,0.0165 1.30411,0.0248 1.88751,0.0248 0.34992,1e-5 0.71245,-0.004 1.08757,-0.0122 0.3751,-0.008 0.72923,-0.0122 1.06239,-0.0122 1.38345,1e-5 2.58343,0.0374 3.59993,0.11216 1.01648,0.0748 1.85393,0.27886 2.51236,0.61226 0.6584,0.33341 1.14592,0.84178 1.46256,1.52511 0.3166,0.68335 0.47491,1.64173 0.47493,2.87514 -2e-5,0.8667 -0.0833,1.60001 -0.24986,2.19993 -0.1666,0.59993 -0.42905,1.09571 -0.78736,1.48735 -0.35835,0.39165 -0.81255,0.69581 -1.36261,0.91248 -0.5501,0.21668 -1.20838,0.36672 -1.97487,0.45013 -0.45015,0.0498 -1.31685,0.10822 -2.60009,0.1751 -1.28328,0.0669 -2.92487,0.10033 -4.92478,0.10033 -1.96686,0 -3.57107,-0.0584 -4.81262,-0.1751 -1.24156,-0.11673 -2.1459,-0.37524 -2.71301,-0.77553 -0.39979,-0.2833 -0.69555,-0.58746 -0.8873,-0.91247 -0.19175,-0.32501 -0.32514,-0.67075 -0.40016,-1.03722 -0.075,-0.36646 -0.11254,-0.7623 -0.11254,-1.18751 0,-0.42521 0,-0.88781 0,-1.38779 l 5.02549,0 c -10e-6,0.18362 -10e-6,0.37537 0,0.57526 -10e-6,0.19989 0.0416,0.37905 0.12474,0.53749 0.0831,0.15844 0.23307,0.30009 0.44975,0.42495 0.21667,0.12488 0.55007,0.20409 1.00021,0.23766 0.21667,0.0168 0.6209,0.0335 1.21269,0.05 0.59178,0.0165 1.33755,0.0248 2.23732,0.0248 1.16678,0 2.12096,-0.008 2.86255,-0.0248 0.74157,-0.0165 1.32076,-0.0749 1.7376,-0.17509 0.4168,-0.1002 0.70011,-0.25024 0.84991,-0.45014 0.14978,-0.19988 0.22467,-0.49158 0.22469,-0.87509 -2e-5,-0.3662 -0.0749,-0.65358 -0.22469,-0.86212 -0.1498,-0.20853 -0.36635,-0.35858 -0.64964,-0.45013 -0.28332,-0.0916 -0.62092,-0.14572 -1.0128,-0.16251 -0.39191,-0.0168 -0.82107,-0.0252 -1.28746,-0.0252 -1.63321,-0.0163 -3.08318,-0.0203 -4.3499,-0.0122 -1.26674,0.008 -2.36677,-0.0211 -3.3001,-0.0877 -0.93333,-0.0666 -1.72081,-0.18323 -2.36244,-0.34981 -0.64163,-0.16657 -1.15827,-0.43322 -1.54991,-0.79994 -0.39164,-0.36671 -0.67495,-0.85004 -0.84991,-1.44997 -0.17497,-0.59991 -0.26246,-1.3584 -0.26246,-2.27547 0,-0.81633 0.0708,-1.52446 0.21248,-2.1244 0.14165,-0.59991 0.37905,-1.10409 0.71221,-1.51253 0.33314,-0.40841 0.77056,-0.72516 1.31225,-0.95024 0.54169,-0.22505 1.21256,-0.38743 2.01264,-0.48714 0.53354,-0.0666 1.39617,-0.13337 2.58789,-0.20027 1.1917,-0.0669 2.68731,-0.10031 4.48684,-0.10032 0.95011,1e-5 1.80434,0.004 2.56272,0.0126 0.75834,0.008 1.43342,0.0459 2.02522,0.11254 0.59177,0.0666 1.1126,0.16252 1.5625,0.28763 0.44986,0.12513 0.84163,0.31256 1.17531,0.56228 0.36619,0.26705 0.65356,0.55048 0.86212,0.8503 0.20852,0.29985 0.36276,0.62486 0.46272,0.97504 0.0999,0.3502 0.16656,0.72938 0.19989,1.13754 0.0333,0.40818 0.0499,0.85387 0.05,1.33705 z"
       style="font-size:25px;fill:#ffffff;font-family:Eurostile MN;-inkscape-font-specification:Eurostile MN"
       id="path4557" />
    <path
       d="m 454.61243,-243.41444 c -0.0168,-0.51676 -0.0918,-0.9084 -0.22507,-1.17493 -0.13328,-0.26651 -0.38327,-0.45813 -0.74997,-0.57488 -0.36674,-0.11671 -0.88757,-0.17927 -1.5625,-0.18768 -0.67496,-0.008 -1.56251,-0.0126 -2.66266,-0.0126 -1.2497,2e-5 -2.25793,0.0126 -3.02467,0.0378 -0.76676,0.0252 -1.36682,0.14611 -1.80016,0.36278 -0.43335,0.21668 -0.72505,0.57908 -0.87509,1.08718 -0.15005,0.50813 -0.22507,1.24564 -0.22507,2.21253 0,1.23343 0.0375,2.18761 0.11254,2.86255 0.075,0.67495 0.30008,1.17493 0.6752,1.49994 0.3751,0.32501 0.9543,0.51664 1.73759,0.57487 0.78328,0.0582 1.87504,0.0874 3.2753,0.0874 1.04979,0 1.92476,0 2.6249,0 0.7001,0 1.25425,-0.0666 1.66244,-0.19989 0.40816,-0.13326 0.69973,-0.36239 0.87471,-0.68741 0.17495,-0.32501 0.26243,-0.81253 0.26245,-1.46256 l 5.00031,0 c -3e-5,0.13327 0.004,0.25407 0.0126,0.3624 0.008,0.10834 0.0126,0.22914 0.0126,0.3624 -2e-5,0.85043 -0.0542,1.60065 -0.1625,2.25067 -0.10836,0.65003 -0.29592,1.19998 -0.56267,1.64986 -0.2668,0.44988 -0.62512,0.8082 -1.07498,1.07498 -0.4499,0.26677 -1.00825,0.43347 -1.67504,0.5001 -1.08339,0.11648 -2.1042,0.20384 -3.06243,0.26207 -0.95827,0.0582 -1.83743,0.0874 -2.63749,0.0874 -2.61689,0 -5.05855,-0.075 -7.32498,-0.22507 -0.88349,-0.0498 -1.63358,-0.24147 -2.25029,-0.57487 -0.61671,-0.33341 -1.11669,-0.82092 -1.49994,-1.46256 -0.38325,-0.64163 -0.66236,-1.44576 -0.83732,-2.41241 -0.17497,-0.96664 -0.26245,-2.12491 -0.26245,-3.47481 0,-0.8499 0.008,-1.62899 0.0248,-2.33726 0.0165,-0.70826 0.079,-1.35828 0.1873,-1.95008 0.10834,-0.59177 0.27504,-1.13346 0.50011,-1.62506 0.22507,-0.49157 0.54588,-0.93751 0.96245,-1.33781 0.41656,-0.39977 0.90408,-0.70799 1.46255,-0.92469 0.55847,-0.21665 1.21269,-0.37496 1.96267,-0.47493 0.74996,-0.0999 1.6,-0.16248 2.55012,-0.18768 0.9501,-0.0252 2.01669,-0.0377 3.19977,-0.0378 2.05026,1e-5 3.73788,0.0417 5.06286,0.12512 1.32496,0.0834 2.37069,0.31676 3.13721,0.7 0.76648,0.38326 1.29977,0.98331 1.59989,1.80015 0.30006,0.81687 0.4585,1.95848 0.47531,3.42484 z"
       style="font-size:25px;fill:#ffffff;font-family:Eurostile MN;-inkscape-font-specification:Eurostile MN"
       id="path4559" />
    <path
       d="m 467.01553,-249.28908 0,16.67481 -5.12542,0 0,-16.67481 z"
       style="font-size:25px;fill:#ffffff;font-family:Eurostile MN;-inkscape-font-specification:Eurostile MN"
       id="path4561" />
    <path
       d="m 469.54849,-232.61427 0,-16.67481 18.5997,0 0,3.74985 -13.57498,0 0,2.89993 12.67471,0 0,3.29972 -12.67471,0 0,2.97546 13.57498,0 0,3.74985 z"
       style="font-size:25px;fill:#ffffff;font-family:Eurostile MN;-inkscape-font-specification:Eurostile MN"
       id="path4563" />
    <path
       d="m 513.74557,-249.28908 0,16.67481 -8.07495,0 -10.02502,-12.52518 0,12.52518 -4.80042,0 0,-16.67481 8.07496,0 10.02502,12.5 0,-12.5 z"
       style="font-size:25px;fill:#ffffff;font-family:Eurostile MN;-inkscape-font-specification:Eurostile MN"
       id="path4565" />
    <path
       d="m 528.12546,-245.11427 0,12.5 -5.12467,0 0,-12.5 -7.47528,0 0,-4.17481 19.95011,0 0,4.17481 z"
       style="font-size:25px;fill:#ffffff;font-family:Eurostile MN;-inkscape-font-specification:Eurostile MN"
       id="path4567" />
    <path
       d="m 542.40616,-249.28908 0,16.67481 -5.12543,0 0,-16.67481 z"
       style="font-size:25px;fill:#ffffff;font-family:Eurostile MN;-inkscape-font-specification:Eurostile MN"
       id="path4569" />
    <path
       d="m 560.36346,-239.08934 -3.54995,-6.60019 -3.59955,6.60019 z m 1.85013,3.45001 -10.77499,0 -1.64948,3.02506 -5.65033,0 9.30024,-16.67481 6.84967,0 9.10034,16.67481 -5.59998,0 z"
       style="font-size:25px;fill:#ffffff;font-family:Eurostile MN;-inkscape-font-specification:Eurostile MN"
       id="path4571" />
  </g>
</svg>
